<ttFont>
<head>
    <!-- Most of this table will be recalculated by the compiler -->
    <tableVersion value="1.0"/>
    <fontRevision value="1.0"/>
    <checkSumAdjustment value="0xff88847a"/>
    <magicNumber value="0x5f0f3cf5"/>
    <flags value="00000000 00000011"/>
    <unitsPerEm value="2048"/>
    <created value="Tue May 30 14:31:00 2017"/>
    <modified value="Wed May 31 02:48:34 2017"/>
    <xMin value="-534"/>
    <yMin value="-573"/>
    <xMax value="2927"/>
    <yMax value="2213"/>
<macStyle value="00000000 00000010"/>
    <lowestRecPPEM value="3"/>
    <fontDirectionHint value="2"/>
    <indexToLocFormat value="0"/>
    <glyphDataFormat value="0"/>
  </head>
          <CharString index="0">
            67 54 54 67 67 -54 54 -67 -67 -54 -54 -67 -67 54 -54 67 hvcurveto
            return
          </CharString>
          <CharString index="1">
            rmoveto
            -156 -114 119 199 265 148 223 229 187 133 -171 -278 -62 hvcurveto
            -197 -44 -150 -160 -171 hhcurveto
            435 -136 rmoveto
            -21 callgsubr
            -177 hlineto
            -45 -203 rlineto
            -15 hlineto
            122 -38 -120 100 -180 hhcurveto
            -283 -256 -257 -406 -292 176 -161 228 123 121 71 120 89 hvcurveto
            16 hlineto
            -36 -172 rlineto
            return
          </CharString>
          <CharString index="2">
            136 rmoveto
            -168 148 callsubr
            222 169 102 -125 -205 -262 -163 -214 -201 hvcurveto
            109 961 rmoveto
            -335 -237 -278 -392 -264 180 -182 261 38 callsubr
            hvcurveto
            return
          </CharString>
          <CharString index="3">
            250 36 callgsubr
            211 182 308 66 hvcurveto
            210 987 rlineto
            127 callsubr
            -230 -112 114 177 -7 hvcurveto
            -1 41 4 45 10 47 186 887 rcurveline
            -184 hlineto
            -188 -899 -9 -44 -5 -44 1 -42 rlinecurve
            -250 3 173 -198 327 hhcurveto
            return
          </CharString>
          <CharString index="4">
            -269 39 205 -165 296 hhcurveto
            318 222 181 261 179 -112 125 -238 86 hvcurveto
            -130 47 rlineto
            -158 57 -74 75 102 vvcurveto
            136 130 99 178 175 124 -95 -162 37 vhcurveto
            181 hlineto
            246 -22 -210 174 -274 hhcurveto
            -291 -218 -177 -237 -166 114 -135 197 -69 hvcurveto
            137 -48 rlineto
            186 -65 77 -76 -119 vvcurveto
            -153 -135 -103 -199 -195 -144 105 166 -34 vhcurveto
            return
          </CharString>
          <CharString index="5">
            162 rmoveto
            -712 hlineto
            106 496 rlineto
            674 hlineto
            34 160 rlineto
            -675 hlineto
            100 463 rlineto
            711 -26 callsubr
            -896 -92 callgsubr
            896 hlineto
            return
          </CharString>
          <CharString index="6">
            rmoveto
            -107 callsubr
            endchar
          </CharString>
          <CharString index="7">
            -162 158 -392 rmoveto
            147 96 54 220 126 hvcurveto
            686 1196 rlineto
            -189 hlineto
            -472 -857 rlineto
            -16 hlineto
            -128 857 rlineto
            -171 hlineto
            175 -1070 -39 -73 rlineto
            -138 -74 -59 -43 -72 hhcurveto
            -45 -39 7 6 -20 hvcurveto
            -30 -143 rlineto
            -5 19 54 -11 51 hhcurveto
            return
          </CharString>
          <CharString index="8">
            -63 callsubr
            170 hhcurveto
            148 79 -88 -130 -31 -5 -35 -8 -39 hvcurveto
            -132 -619 60 callgsubr
            138 649 rlineto
            9 44 5 42 38 vvcurveto
            171 -125 153 -211 -165 -91 25 callsubr
            127 589 rlineto
            -175 hlineto
            return
          </CharString>
          <CharString index="9">
            rmoveto
            53 hlineto
            87 47 -26 -46 -43 -40 -27 -64 -45 -67 13 15 -35 hvcurveto
            -23 -108 rlineto
            -22 49 69 -14 57 hhcurveto
            144 103 81 114 90 -61 53 -118 13 hvcurveto
            111 179 rlineto
            0 -141 vlineto
            -113 -182 rlineto
            return
          </CharString>
          <CharString index="10">
            rmoveto
            38 39 2 7 30 hvcurveto
            31 146 rlineto
            -3 -23 -21 -1 -31 hhcurveto
            -86 -50 34 82 27 4 32 8 38 hvcurveto
            123 578 rlineto
            243 hlineto
            32 144 rlineto
            -245 hlineto
            59 279 rlineto
            -175 hlineto
            -57 -279 rlineto
            -182 118 callgsubr
            181 hlineto
            -135 -631 rlineto
            -7 -34 -4 -31 -28 vvcurveto
            -146 108 -72 150 vhcurveto
            return
          </CharString>
          <CharString index="11">
            -94 callsubr
            endchar
          </CharString>
          <CharString index="12">
            rmoveto
            -329 -240 -281 -378 -276 174 -181 262 237 146 callsubr
            196 44 hvcurveto
            -179 hlineto
            -108 -41 -101 -62 -133 hhcurveto
            -166 -104 122 201 273 160 208 214 137 108 -82 -112 11 hvcurveto
            176 hlineto
            -1 16 -1 16 -3 15 rrcurveto
            176 -33 -167 126 -213 hhcurveto
            return
          </CharString>
          <CharString index="13">
            rmoveto
            -674 -55 callsubr
            674 hlineto
            return
          </CharString>
          <CharString index="14">
            64 123 147 callsubr
            121 571 rlineto
            368 0 hlineto
            188 -571 rlineto
            196 hlineto
            -207 599 rlineto
            235 56 152 182 224 vvcurveto
            232 -169 150 -262 vhcurveto
            -499 hlineto
            150 -160 rmoveto
            344 hlineto
            151 95 -93 -146 -184 -148 -129 -212 hvcurveto
            -348 hlineto
            return
          </CharString>
          <CharString index="15">
            17 callgsubr
            -133 -624 rlineto
            -788 hlineto
            133 624 -91 callgsubr
            183 hlineto
            140 657 rlineto
            788 hlineto
            -140 -657 rlineto
            return
          </CharString>
          <CharString index="16" raw="1">
            06fbc71c fa5d0b  
          </CharString>
          <CharString index="17">
            rmoveto
            -305 -12 callgsubr
            591 hlineto
            420 326 347 465 392 -227 239 -402 hvcurveto
            -253 -160 rmoveto
            239 hlineto
            288 169 -178 -302 -369 -236 -274 -317 hvcurveto
            -382 hlineto
            return
          </CharString>
          <CharString index="18">
            -342 -233 rlineto
            233 hlineto
            192 136 -18 callgsubr
            135 -11 callgsubr
            212 hlineto
            return
          </CharString>
          <CharString index="19">
            -19 rmoveto
            261 172 128 166 44 hvcurveto
            -183 hlineto
            -83 -45 -84 -54 -142 hhcurveto
            -130 -140 83 222 19 1 19 1 18 hvcurveto
            777 hlineto
            7 41 6 79 42 vvcurveto
            280 -1 -187 156 -222 hhcurveto
            -147 -127 -61 -107 -90 hvcurveto
            -16 hlineto
            110 -60 -126 58 -160 hhcurveto
            -219 -168 -111 -178 -48 hvcurveto
            182 hlineto
            87 34 84 48 121 hhcurveto
            145 86 -64 -109 -16 -2 -13 -4 -22 hvcurveto
            -16 -73 -306 -14 rlineto
            -299 -13 -166 -127 -213 vvcurveto
            -168 142 -130 208 181 161 111 129 75 vhcurveto
            15 hlineto
            -148 58 162 -92 165 hhcurveto
            -222 657 rmoveto
            184 50 125 123 166 hhcurveto
            162 84 -120 -142 -17 -1 -22 -1 -6 hvcurveto
            -1146 -508 rmoveto
            -122 -85 70 98 113 102 73 176 9 hvcurveto
            287 14 -27 -124 rlineto
            -146 -32 -137 -107 -162 hhcurveto
            return
          </CharString>
          <CharString index="20">
            rmoveto
            6 26 33 4 34 hhcurveto
            63 41 -21 -44 -51 -48 -46 -84 -18 hvcurveto
            52 -107 rlineto
            136 34 95 96 108 vvcurveto
            107 -91 63 -137 -37 -37 -6 -7 -21 vhcurveto
            return
          </CharString>
          <CharString index="21">
            307 1443 -91 callgsubr
            return
          </CharString>
          <CharString index="22">
            320 1374 864 rmoveto
            -423 -242 -308 -331 -245 -165 180 266 416 248 315 329 242 164 -181 -265 vhcurveto
            190 16 rmoveto
            180 -65 163 -125 97 vhcurveto
            6 9 rlineto
            -4 25 32 -4 28 hhcurveto
            122 97 67 132 28 hvcurveto
            33 156 rlineto
            -160 hlineto
            -26 -124 rlineto
            -78 -16 -49 -35 -104 -202 -75 38 -131 hhcurveto
            -35 callgsubr
            hvcurveto
            return
          </CharString>
          <CharString index="23">
            rmoveto
            -186 -40 114 -142 204 hhcurveto
            231 133 142 186 40 hvcurveto
            29 callsubr
            -86 127 callgsubr
            -118 -48 101 109 23 hvcurveto
            endchar
          </CharString>
          <CharString index="24">
            rmoveto
            -2 -15 -1 -14 -13 vvcurveto
            -162 123 -124 220 228 153 132 196 19 vhcurveto
            -156 hlineto
            -129 -19 -84 -70 -134 hhcurveto
            -121 -77 65 103 15 1 8 1 8 hvcurveto
            return
          </CharString>
          <CharString index="25">
            106 871 1116 rmoveto
            6 hlineto
            95 -550 rlineto
            -430 hlineto
            529 -566 rmoveto
            180 hlineto
            -253 142 callgsubr
            -178 hlineto
            -811 -1313 rlineto
            194 hlineto
            248 413 rlineto
            548 hlineto
            return
          </CharString>
          <CharString index="26">
            hmoveto
            325 232 191 267 149 -94 107 -155 27 hvcurveto
            4 16 rlineto
            189 41 123 145 182 vvcurveto
            193 -160 125 -246 vhcurveto
            -501 81 callsubr
            1284 rmoveto
            283 hlineto
            194 94 -64 -132 -158 -151 -109 -220 hvcurveto
            -298 hlineto
            -141 -662 rmoveto
            108 507 rlineto
            335 hlineto
            196 100 -75 -148 -162 -160 -122 -212 hvcurveto
            return
          </CharString>
          <CharString index="27">
            195 672 -34 rmoveto
            398 267 280 397 84 hvcurveto
            534 114 -232 300 -395 hhcurveto
            -303 -243 -166 -303 -92 hvcurveto
            183 hlineto
            172 68 158 131 210 hhcurveto
            258 139 -185 -307 -23 hvcurveto
            -640 88 callgsubr
            650 hlineto
            -312 -70 -206 -213 -268 hhcurveto
            -184 -144 103 167 -24 hvcurveto
            -185 hlineto
            -266 18 238 -170 258 hhcurveto
            return
          </CharString>
          <CharString index="28">
            70 705 hmoveto
            -77 callgsubr
            return
          </CharString>
          <CharString index="29">
            rmoveto
            354 340 rlineto
            -211 hlineto
            -225 -227 rlineto
            -16 hlineto
            -129 227 73 callsubr
            210 -340 rlineto
            endchar
          </CharString>
          <CharString index="30">
            -106 188 748 rmoveto
            174 hlineto
            124 59 100 70 132 hhcurveto
            176 104 -122 -191 -3 56 callgsubr
            -478 hlineto
            -31 -144 rlineto
            494 hlineto
            -207 -39 -133 -142 -199 hhcurveto
            -139 -93 83 106 -10 hvcurveto
            -174 hlineto
            -183 7 138 -161 266 hhcurveto
            361 211 306 364 272 -176 174 -260 -241 -172 -139 -210 -74 hvcurveto
            return
          </CharString>
          <CharString index="31">
            -4 0 -3 -3 vvcurveto
            -171 139 -117 203 192 151 29 callgsubr
            -154 hlineto
            -105 -27 -81 -64 -112 hhcurveto
            return
          </CharString>
          <CharString index="32">
            708 1161 161 callgsubr
            12 hlineto
            97 -1139 163 callgsubr
            692 -39 callgsubr
            -186 hlineto
            -541 -1173 rlineto
            -12 hlineto
            -94 1173 rlineto
            -162 hlineto
            -572 -1173 rlineto
            -12 hlineto
            -58 1173 rlineto
            -165 hlineto
            87 -1443 163 callgsubr
            return
          </CharString>
          <CharString index="33">
            rmoveto
            -186 -40 126 -112 206 hhcurveto
            202 153 112 186 39 hvcurveto
            29 callsubr
            -95 -71 -108 hhcurveto
            -106 -65 71 109 23 hvcurveto
            endchar
          </CharString>
          <CharString index="34">
            rmoveto
            -202 hlineto
            -354 -340 rlineto
            209 hlineto
            225 227 -18 callgsubr
            129 -227 122 callsubr
            return
          </CharString>
          <CharString index="35">
            rmoveto
            117 -59 68 -111 26 vhcurveto
            4 16 rlineto
            121 23 93 112 111 vvcurveto
            171 -177 111 -188 -231 -179 -101 -237 -56 vhcurveto
            177 hlineto
            135 41 113 49 115 hhcurveto
            119 85 -49 -102 -92 -96 -68 -125 hvcurveto
            -163 hlineto
            -34 -144 rlineto
            157 hlineto
            147 66 -62 -95 -109 -102 -87 -170 -149 -92 84 111 -3 hvcurveto
            -171 hlineto
            -210 1 159 -139 244 hhcurveto
            259 205 152 209 hvcurveto
            return
          </CharString>
          <CharString index="36">
            rmoveto
            -202 hlineto
            -310 -298 rlineto
            207 hlineto
            183 186 -18 callgsubr
            105 -186 120 callgsubr
            return
          </CharString>
          <CharString index="37">
            59 270 -10 rmoveto
            251 132 133 249 160 hvcurveto
            687 1071 124 callsubr
            -574 -929 rlineto
            -16 hlineto
            -189 929 rlineto
            -189 hlineto
            251 -1135 rlineto
            -107 -80 -83 -44 -110 hhcurveto
            -43 -24 5 3 -11 hvcurveto
            109 callgsubr
            -6 10 27 -7 40 hhcurveto
            return
          </CharString>
          <CharString index="38">
            rmoveto
            99 hlineto
            94 66 -51 -73 -95 -72 -63 -108 -101 -67 59 88 hvcurveto
            0 -165 100 callgsubr
            -164 -21 143 -125 208 hhcurveto
            207 148 121 168 97 -56 67 -100 22 hvcurveto
            1 11 rlineto
            124 19 88 96 117 vvcurveto
            135 -126 98 -175 -173 -133 -100 -154 -32 vhcurveto
            161 hlineto
            70 22 65 47 76 hhcurveto
            87 58 -47 -69 -84 -71 -61 -98 hvcurveto
            -123 hlineto
            return
          </CharString>
          <CharString index="39">
            hmoveto
            107 493 229 204 381 -697 rlineto
            210 hlineto
            -449 808 702 635 rlineto
            -235 hlineto
            -772 -701 rlineto
            -16 hlineto
            149 701 rlineto
            -179 -92 callgsubr
            return
          </CharString>
          <CharString index="40">
            648 -14 callgsubr
            -447 -496 rmoveto
            121 559 rlineto
            20 callsubr
            -167 176 -217 -137 -129 -64 -102 -78 hvcurveto
            -16 hlineto
            31 147 164 callgsubr
            -306 -1438 rlineto
            return
          </CharString>
          <CharString index="41">
            hmoveto
            234 1102 rlineto
            12 hlineto
            221 -1092 rlineto
            152 hlineto
            685 1092 rlineto
            12 hlineto
            -234 -1102 rlineto
            172 -25 callsubr
            -222 hlineto
            -746 -1194 rlineto
            -16 hlineto
            -242 1194 rlineto
            -200 -92 callgsubr
            return
          </CharString>
          <CharString index="42">
            90 422 130 94 301 -516 rlineto
            201 hlineto
            -363 613 565 465 rlineto
            -227 hlineto
            -546 -442 rlineto
            -16 hlineto
            185 870 rlineto
            -174 87 callsubr
            return
          </CharString>
          <CharString index="43">
            166 hlineto
            35 166 rlineto
            120 hlineto
            30 141 rlineto
            -120 hlineto
            127 596 rlineto
            -254 hlineto
            -207 -236 -164 -196 -113 -149 -28 -156 rcurveline
            443 hlineto
            -253 146 rmoveto
            144 186 119 143 112 127 rrcurveto
            9 hlineto
            -98 -465 rlineto
            -288 hlineto
            endchar
          </CharString>
          <CharString index="44">
            175 hlineto
            140 658 rlineto
            163 35 116 121 return
          </CharString>
          <CharString index="45" raw="1">
            15681df7 edfb89f7 90fbe51f 7dfb3b15
            f786f738 fb49fb9d fc3bfb86 fbc8fbdf
            fb89fb39 f748f79e f834f78c f7cff7dd
            1f0b   
          </CharString>
          <CharString index="46">
            rmoveto
            124 110 92 178 29 hvcurveto
            -142 hlineto
            -96 -18 -47 -39 -50 -95 -34 180 -169 hhcurveto
            -124 -110 -92 -178 -29 hvcurveto
            142 hlineto
            96 18 46 39 50 95 33 -180 171 hhcurveto
            endchar
          </CharString>
          <CharString index="47">
            678 -54 callsubr
            return
          </CharString>
          <CharString index="48">
            rmoveto
            6 23 35 3 36 hhcurveto
            68 36 -21 -39 -51 -48 -41 -80 -18 hvcurveto
            52 -107 rlineto
            132 33 95 97 103 vvcurveto
            101 -89 64 -139 -35 -39 -5 -8 -22 vhcurveto
            return
          </CharString>
          <CharString index="49">
            rmoveto
            2 15 1 14 13 vvcurveto
            162 -137 124 -206 -228 -153 -132 -196 -19 vhcurveto
            156 hlineto
            129 19 84 70 134 hhcurveto
            121 77 -65 -103 -15 -1 -8 -1 -8 hvcurveto
            endchar
          </CharString>
          <CharString index="50">
            307 -46 callgsubr
            return
          </CharString>
          <CharString index="51">
            85 791 695 rmoveto
            -183 -127 83 185 176 166 144 215 hvcurveto
            333 hlineto
            -125 -588 rlineto
            -297 -160 rmoveto
            0 263 vlineto
            -114 -535 rlineto
            184 -25 callsubr
            -570 hlineto
            -327 -223 -252 -255 -183 106 -133 166 -56 hvcurveto
            -525 -564 rlineto
            236 hlineto
            return
          </CharString>
          <CharString index="52">
            hlineto
            -29 -11 callgsubr
            return
          </CharString>
          <CharString index="53">
            hmoveto
            -58 callgsubr
            return
          </CharString>
          <CharString index="54">
            182 1050 hmoveto
            30 callsubr
            -659 -490 -34 callsubr
            return
          </CharString>
          <CharString index="55">
            rmoveto
            149 -108 114 -141 -49 -48 -15 -26 -33 vhcurveto
            -9 4 12 17 15 18 15 14 rlinecurve
            38 42 260 241 30 20 rrcurveto
            0 -230 vlineto
            -18 -15 -189 -184 -28 -30 rrcurveto
            -137 -138 -67 -130 -129 vvcurveto
            -168 140 -126 187 202 158 150 192 vhcurveto
            -355 -199 rmoveto
            -95 -69 67 91 -1 hvcurveto
            103 1 81 82 103 hhcurveto
            94 70 -68 -92 -102 -82 -81 -102 hvcurveto
            endchar
          </CharString>
          <CharString index="56">
            rmoveto
            162 3 hlineto
            84 16 66 55 83 hhcurveto
            81 57 -50 -70 -64 -35 -43 -168 -139 hvcurveto
            -356 -297 -27 -126 rlineto
            646 hlineto
            30 141 rlineto
            -403 hlineto
            2 11 212 178 rlineto
            216 175 56 73 107 vvcurveto
            139 -126 103 -171 -185 -142 -117 -163 -14 vhcurveto
            endchar
          </CharString>
          <CharString index="57">
            449 328 385 529 return
          </CharString>
          <CharString index="58">
            -73 callsubr
            endchar
          </CharString>
          <CharString index="59">
            307 -39 callgsubr
            return
          </CharString>
          <CharString index="60">
            174 hmoveto
            176 hlineto
            194 934 rlineto
            247 102 callgsubr
            -247 104 callsubr
            99 hhcurveto
            47 35 -5 -5 22 hvcurveto
            30 142 rlineto
            7 -34 -32 6 -51 hhcurveto
            -218 -115 -92 -221 -42 hvcurveto
            -20 -105 rlineto
            -179 118 callgsubr
            179 hlineto
            return
          </CharString>
          <CharString index="61">
            -54 1052 162 rmoveto
            -714 hlineto
            92 431 rlineto
            677 hlineto
            34 160 rlineto
            -677 hlineto
            85 398 rlineto
            714 hlineto
            34 162 rlineto
            -894 105 callsubr
            894 hlineto
            return
          </CharString>
          <CharString index="62">
            509 -55 callgsubr
            1090 -1443 rmoveto
            -86 callsubr
            return
          </CharString>
          <CharString index="63">
            rmoveto
            185 -405 rlineto
            181 hlineto
            -256 539 481 539 124 callsubr
            -337 -401 rlineto
            -16 hlineto
            -179 401 rlineto
            -188 hlineto
            258 -530 -484 -548 rlineto
            205 hlineto
            339 405 rlineto
            return
          </CharString>
          <CharString index="64" raw="1">
            153553d2 f70ef792 f70ff774 f71ae0c4
            44fb0efb 93fb0ffb 73fb1a1f fb24f70f
            15f851f7 dc60ebfc 51fbdc05 f749fbfc
            15f787f7 51f796f7 f21ff765 8afb09f7
            1cfb501b fb86fb51 fb97fbf1 fb65f70a
            fb1cf74f 1f0e  
          </CharString>
          <CharString index="65">
            97 callgsubr
            15 1 8 1 8 132 callsubr
            -162 123 -124 220 228 153 132 196 19 vhcurveto
            endchar
          </CharString>
          <CharString index="66">
            hmoveto
            -40 callsubr
            return
          </CharString>
          <CharString index="67">
            204 hlineto
            517 586 -18 callgsubr
            268 -586 rlineto
            194 hlineto
            -332 716 649 727 124 callsubr
            -508 -574 rlineto
            -16 hlineto
            -249 574 rlineto
            -206 hlineto
            323 -691 rlineto
            return
          </CharString>
          <CharString index="68">
            -758 112 hmoveto
            172 -24 callgsubr
            -172 hlineto
            return
          </CharString>
          <CharString index="69" raw="1">
            16f77206 f88af882 05c10622 fc82f736
            0af4f882 05ba06f7 dbfc8205 f75806fc
            21f8e99d 55f8ddf8 ab05fb6d 06fc77fc
            5a055b06 ebf85a05 fb41062b fc5a0555
            06fbb1f8 5a05fb4c 06f7e7fc ab80c405
            0b   
          </CharString>
          <CharString index="70">
            rmoveto
            197 377 78 callgsubr
            -182 -377 rlineto
            endchar
          </CharString>
          <CharString index="71">
            rmoveto
            -178 108 -118 163 192 157 182 221 176 -109 119 -161 -194 -156 -180 -222 vhcurveto
            279 -167 rmoveto
            -73 -48 66 100 147 86 127 100 73 45 -62 -100 -150 -84 -128 -99 hvcurveto
            return
          </CharString>
          <CharString index="72">
            -112 921 1078 rmoveto
            23 -100 5 -79 -109 vvcurveto
            -409 -154 -243 -260 -137 -70 55 116 -1 vhcurveto
            -1 42 4 49 13 60 130 618 rcurveline
            -171 hlineto
            -133 -635 rlineto
            -10 -49 -4 -43 -42 vvcurveto
            -207 134 -121 238 344 255 290 522 113 -10 100 -18 72 vhcurveto
            return
          </CharString>
          <CharString index="73">
            -50 callgsubr
            73 346 75 callsubr
            return
          </CharString>
          <CharString index="74">
            rmoveto
            -65 -52 -52 -65 -65 52 -52 65 65 52 52 65 65 -52 52 -65 hvcurveto
            614 253 59 callsubr
            -182 -123 rmoveto
            126 callgsubr
          </CharString>
          <CharString index="75">
            rmoveto
            151 136 115 214 25 hvcurveto
            -171 hlineto
            -115 -21 -45 -52 -72 -111 -50 228 -200 hhcurveto
            -151 -136 -115 -214 -25 hvcurveto
            171 hlineto
            115 21 43 52 72 111 50 -228 202 hhcurveto
            return
          </CharString>
          <CharString index="76">
            261 799 -34 rmoveto
            407 296 364 518 384 -223 245 -370 -278 -224 -150 -245 -100 hvcurveto
            196 hlineto
            137 81 127 92 192 hhcurveto
            259 149 -179 -310 -18 -1 -13 -2 -32 hvcurveto
            -1075 hlineto
            -12 -74 -6 -70 -50 vvcurveto
            -364 222 -235 362 vhcurveto
            1 166 rmoveto
            -251 -142 154 272 17 3 22 0 hvcurveto
            869 hlineto
            -256 -61 -151 -209 -267 hhcurveto
            return
          </CharString>
          <CharString index="77">
            rmoveto
            -209 118 -136 187 243 189 258 350 vhcurveto
            209 -1 -117 136 -188 hhcurveto
            -242 -189 -259 -349 hvcurveto
            311 -204 rmoveto
            -86 -50 75 122 254 117 220 134 85 51 -75 -122 -255 -117 -219 -134 hvcurveto
            endchar
          </CharString>
          <CharString index="78" raw="1">
            15f96c81 0a0b  
          </CharString>
          <CharString index="79">
            406 799 rmoveto
            74 35 95 65 129 hhcurveto
            186 108 -119 -195 -6 0 6 -2 -35 hvcurveto
            -777 hlineto
            -9 -43 -7 -70 -52 vvcurveto
            -272 159 -171 253 333 228 264 387 288 -170 177 -290 -228 -148 -124 -174 -67 vhcurveto
            358 -666 rmoveto
            -155 -100 112 172 11 3 22 0 hvcurveto
            595 hlineto
            -192 -39 -136 -125 -168 hhcurveto
            return
          </CharString>
          <CharString index="80">
            176 110 callsubr
            520 hlineto
            -104 -488 rlineto
            30 callsubr
            -95 -446 rlineto
            -520 104 callgsubr
            endchar
          </CharString>
          <CharString index="81">
            hlineto
            35 162 rlineto
            return
          </CharString>
          <CharString index="82">
            hlineto
            -48 callsubr
            return
          </CharString>
          <CharString index="83">
            64 callgsubr
            -214 hlineto
            206 -338 rlineto
            endchar
          </CharString>
          <CharString index="84">
            rmoveto
            204 70 callsubr
            -226 hlineto
            620 -298 rmoveto
            204 70 callsubr
            -226 hlineto
            return
          </CharString>
          <CharString index="85">
            rmoveto
            202 hlineto
            342 233 rlineto
            -233 hlineto
            -192 -11 callgsubr
            -16 hlineto
            -135 136 rlineto
            -212 hlineto
            return
          </CharString>
          <CharString index="86">
            84 callgsubr
            331 -552 112 callsubr
            152 717 rlineto
            6 30 3 29 29 vvcurveto
            183 -155 119 -237 -219 -168 -111 -178 -48 vhcurveto
            182 hlineto
            87 34 84 48 121 hhcurveto
            145 86 -64 -109 -16 -2 -13 -4 -22 hvcurveto
            -16 -73 -306 -14 rlineto
            -299 -13 -166 -128 -212 vvcurveto
            -168 142 -130 146 callsubr
            120 61 99 75 vhcurveto
            16 hlineto
            -28 -131 rlineto
            -149 -54 -93 -80 131 callsubr
          </CharString>
          <CharString index="87">
            hmoveto
            -63 callsubr
            return
          </CharString>
          <CharString index="88">
            rmoveto
            159 hlineto
            207 338 rlineto
            -206 hlineto
            endchar
          </CharString>
          <CharString index="89">
            hlineto
            33 154 rlineto
            return
          </CharString>
          <CharString index="90">
            429 rmoveto
            138 -87 115 -145 55 vhcurveto
            4 16 rlineto
            191 37 127 150 189 vvcurveto
            197 -194 151 -252 -282 -211 -178 -242 -114 67 -101 114 -55 vhcurveto
            -4 -16 rlineto
            -223 -22 -164 -180 -222 vvcurveto
            -224 211 -157 297 319 232 194 269 vhcurveto
            -511 251 rmoveto
            195 133 -102 -151 -179 -151 -127 -209 -202 -126 95 155 179 152 130 208 hvcurveto
            -162 365 rmoveto
            164 126 113 179 165 110 -85 -130 -161 -129 -118 -177 -163 -111 88 129 vhcurveto
            endchar
          </CharString>
          <CharString index="91">
            -2 callsubr
            69 63 66 157 96 hvcurveto
            284 173 174 324 352 vvcurveto
            345 -245 252 -337 -449 -332 -389 -525 -344 248 -253 338 24 37 6 6 16 vhcurveto
            -4 -20 rlineto
            -93 -43 -58 -76 -77 44 callsubr
            return
          </CharString>
          <CharString index="92">
            0 0 0 0 vhcurveto
            return
          </CharString>
          <CharString index="93">
            -98 723 -432 rmoveto
            22 27 4 6 24 136 callsubr
            74 75 85 144 91 hvcurveto
            96 60 62 77 23 88 rrcurveto
            159 callsubr
            -163 -107 122 185 14 1 13 1 27 hvcurveto
            777 hlineto
            7 39 6 79 44 vvcurveto
            258 -1 -167 178 -242 hhcurveto
            -332 -229 -271 -394 -270 176 -181 262 12 20 3 4 13 hvcurveto
            -4 -20 rlineto
            -90 -42 -63 158 callsubr
            -362 1070 rmoveto
            191 52 129 116 160 hhcurveto
            148 98 -105 -157 -17 -1 -22 -1 -6 hvcurveto
            endchar
          </CharString>
          <CharString index="94">
            rmoveto
            66 53 53 66 66 -53 53 -66 -66 -53 -53 -66 -66 53 -53 66 hvcurveto
            return
          </CharString>
          <CharString index="95" raw="1">
            15ebf857 e71df87f 05b606f7 e1fc7f05
            f76106fc 2bf8e79a 5ff8e7f8 a305fb6f
            06fc81fc 57050b  
          </CharString>
          <CharString index="96">
            rmoveto
            184 70 callsubr
            -206 hlineto
            return
          </CharString>
          <CharString index="97">
            -18 callsubr
            -728 hlineto
            return
          </CharString>
          <CharString index="98">
            14 callsubr
            451 -19 -42 callsubr
          </CharString>
          <CharString index="99">
            21 callsubr
            218 -317 -42 callsubr
          </CharString>
          <CharString index="100">
            -190 146 -148 184 84 81 32 55 55 vhcurveto
            16 hlineto
            -50 -138 -149 -112 -180 -36 85 callsubr
            -120 100 callgsubr
            311 47 239 226 305 vvcurveto
            247 -157 173 -224 -201 -155 -147 -194 vhcurveto
            return
          </CharString>
          <CharString index="101">
            665 rmoveto
            156 hlineto
            182 129 -96 -139 -188 -136 -119 -213 -189 -132 104 149 hvcurveto
            8 -174 vlineto
            -1 -11 -1 -12 -9 vvcurveto
            -217 1 212 -169 273 hhcurveto
            321 224 195 278 152 -89 104 -158 34 hvcurveto
            3 16 rlineto
            199 39 131 148 191 vvcurveto
            203 -187 151 -253 -251 -198 -152 -229 -49 vhcurveto
            177 hlineto
            130 39 127 93 139 hhcurveto
            160 109 -87 -128 -160 -137 -125 -173 156 callgsubr
            endchar
          </CharString>
          <CharString index="102">
            -137 907 hmoveto
            3 callgsubr
            return
          </CharString>
          <CharString index="103">
            rmoveto
            -175 hlineto
            -146 -688 rlineto
            -153 -32 -125 -101 -128 hhcurveto
            -122 -70 85 103 31 5 35 8 39 hvcurveto
            138 649 rlineto
            -175 hlineto
            -144 -676 rlineto
            -166 -35 -124 -100 -128 hhcurveto
            -122 -70 85 103 31 5 35 8 39 hvcurveto
            138 649 rlineto
            -175 hlineto
            -144 -679 rlineto
            -9 -44 -5 -42 -38 vvcurveto
            -172 130 -122 175 165 116 93 104 65 vhcurveto
            16 hlineto
            -99 23 105 -98 157 hhcurveto
            121 119 79 106 58 hvcurveto
            16 hlineto
            -35 -166 146 callgsubr
            endchar
          </CharString>
          <CharString index="104">
            rmoveto
            -51 -247 rlineto
            -8 -39 -4 -34 -31 vvcurveto
            -207 170 -42 117 vhcurveto
            48 98 callgsubr
            -45 hlineto
            -117 -34 64 78 28 5 30 6 29 hvcurveto
            55 266 rlineto
            7 34 5 31 27 vvcurveto
            93 -49 53 -130 29 vhcurveto
            3 16 144 14 98 69 33 155 rlinecurve
            63 295 rlineto
            159 34 63 66 140 hhcurveto
            44 hlineto
            30 141 rlineto
            -49 hlineto
            -226 -141 -90 -234 -50 hvcurveto
            -59 -274 rlineto
            -159 -34 -74 -54 -159 hhcurveto
            -41 -191 rlineto
            124 64 -22 -102 -24 -4 -29 -7 -34 hvcurveto
            endchar
          </CharString>
          <CharString index="105">
            -27 callgsubr
            -78 -49 35 56 return
          </CharString>
          <CharString index="106">
            29 callgsubr
            96 callsubr
            return
          </CharString>
          <CharString index="107">
            649 rmoveto
            -169 -118 115 165 218 160 170 203 181 120 -114 -173 -212 -168 -169 -209 hvcurveto
            -474 259 rmoveto
            -242 179 -171 252 153 139 69 122 92 vhcurveto
            16 -2 rlineto
            -361 -77 -164 -197 -221 hhcurveto
            -161 -111 91 145 -13 hvcurveto
            -186 hlineto
            -232 11 190 -164 254 hhcurveto
            488 197 568 420 321 -185 202 -291 -317 -245 -247 -322 hvcurveto
            endchar
          </CharString>
          <CharString index="108" raw="1">
            8e1d0e   
          </CharString>
          <CharString index="109">
            153 113 172 hhcurveto
            190 78 -112 -153 -185 -134 -148 -201 -85 -39 16 0 hvcurveto
            -35 -161 rlineto
            0 41 -18 118 301 218 213 284 250 -144 176 -288 -148 -127 -66 -80 -75 vhcurveto
            return
          </CharString>
          <CharString index="110">
            hlineto
            93 callsubr
            return
          </CharString>
          <CharString index="111">
            rmoveto
            265 hlineto
            28 134 rlineto
            -265 hlineto
            56 262 rlineto
            -135 hlineto
            -56 -262 rlineto
            -264 hlineto
            -28 -134 rlineto
            264 hlineto
            -56 -262 rlineto
            135 hlineto
            endchar
          </CharString>
          <CharString index="112">
            -164 542 -19 rmoveto
            288 196 135 210 53 hvcurveto
            -179 hlineto
            -117 -42 -135 -72 -166 hhcurveto
            -160 -93 59 99 101 88 71 163 hvcurveto
            189 -18 callsubr
            -161 hlineto
            -142 -69 55 92 97 85 77 173 174 83 -55 -107 27 hvcurveto
            176 hlineto
            176 -20 -134 141 -306 hhcurveto
            -255 -181 -126 -206 -94 51 -68 89 -41 hvcurveto
            -4 -16 rlineto
            -143 -34 -100 -94 -144 vvcurveto
            -193 199 -100 223 vhcurveto
            return
          </CharString>
          <CharString index="113">
            rmoveto
            54 40 -43 -54 -53 -40 -43 -54 -54 -40 43 53 54 40 43 54 hvcurveto
            -268 vmoveto
            96 78 74 97 97 -78 75 -96 -96 -78 -75 -97 -97 78 -74 96 hvcurveto
            endchar
          </CharString>
          <CharString index="114" raw="1">
            fbb115f7 3506f700 f85305fb e60663fb
            3605f746 060b  
          </CharString>
          <CharString index="115">
            823 -360 rmoveto
            173 hlineto
            213 998 rlineto
            8 38 8 50 36 vvcurveto
            206 -143 129 -191 -136 -113 -63 -126 -82 vhcurveto
            -17 hlineto
            -6 35 rlineto
            107 -18 -59 38 -118 hhcurveto
            -33 -23 -3 -7 -29 hvcurveto
            -31 -145 rlineto
            3 15 17 1 20 hhcurveto
            65 25 -18 -50 -15 -3 -19 -5 -25 hvcurveto
            -172 -810 60 callgsubr
            138 648 rlineto
            193 41 127 101 152 hhcurveto
            133 89 -78 -140 -27 -5 -38 -6 -30 hvcurveto
            return
          </CharString>
          <CharString index="116">
            rmoveto
            182 hlineto
            352 338 rlineto
            -210 hlineto
            -724 -338 rmoveto
            182 hlineto
            352 338 rlineto
            -210 hlineto
            endchar
          </CharString>
          <CharString index="117">
            rmoveto
            13 callsubr
            return
          </CharString>
          <CharString index="118">
            662 rmoveto
            -179 -132 132 181 194 150 150 194 181 132 -131 -179 -193 -154 -154 -192 hvcurveto
            -486 299 rmoveto
            -254 177 -181 247 65 88 34 41 44 vhcurveto
            12 -9 -15 -19 -22 -24 -19 -19 rlinecurve
            -555 -548 rlineto
            224 hlineto
            432 443 rlineto
            218 224 104 188 190 vvcurveto
            262 -195 188 -273 -299 -233 -226 -290 vhcurveto
            endchar
          </CharString>
          <CharString index="119">
            hmoveto
            526 -26 callsubr
            -311 hlineto
            4 18 rlineto
            242 149 158 280 297 vvcurveto
            344 -222 227 -361 -453 -301 -321 -468 -223 88 -173 151 -112 vhcurveto
            -4 -18 rlineto
            -311 hlineto
            152 callsubr
            526 hlineto
            44 204 rlineto
            -180 106 -93 172 209 vvcurveto
            377 212 242 332 265 155 -163 -254 -297 -144 -228 -279 -164 vhcurveto
            return
          </CharString>
          <CharString index="120">
            174 hlineto
            192 903 rlineto
            -173 hlineto
            0 -270 -164 0 vhcurveto
            -36 -169 256 155 rlineto
            11 hlineto
            return
          </CharString>
          <CharString index="121">
            rmoveto
            -127 298 rlineto
            -198 hlineto
            155 -298 rlineto
            return
          </CharString>
          <CharString index="122">
            1556 -66 callgsubr
          </CharString>
          <CharString index="123">
            110 hmoveto
            34 callsubr
            return
          </CharString>
          <CharString index="124">
            -98 callgsubr
            endchar
          </CharString>
          <CharString index="125">
            rmoveto
            67 52 52 67 67 -52 52 -67 -67 -52 -52 -67 -67 52 -52 67 hvcurveto
            428 528 -96 callsubr
          </CharString>
          <CharString index="126" raw="1">
            152f0a0e   
          </CharString>
          <CharString index="127">
            16 hlineto
            -129 38 129 -89 156 hhcurveto
            311 241 305 394 241 return
          </CharString>
          <CharString index="128">
            rmoveto
            170 hlineto
            281 298 rlineto
            -198 hlineto
            return
          </CharString>
          <CharString index="129">
            -299 rmoveto
            -2 -10 -18 -1 -17 hhcurveto
            -79 -43 34 63 81 79 107 111 68 hvcurveto
            -119 24 rlineto
            -139 -70 -97 -130 -114 vvcurveto
            -122 83 -71 143 34 32 4 6 14 vhcurveto
            endchar
          </CharString>
          <CharString index="130">
            55 callgsubr
            58 callgsubr
          </CharString>
          <CharString index="131">
            57 callgsubr
            -40 -78 -13 hvcurveto
            50 -101 rlineto
            132 32 90 91 101 61 callsubr
            82 -584 rmoveto
            193 159 100 138 26 hvcurveto
            -154 hlineto
            -70 -18 -84 -43 -118 hhcurveto
            -100 -88 51 62 -6 hvcurveto
            0 -152 100 callgsubr
            -123 165 -115 177 vhcurveto
            endchar
          </CharString>
          <CharString index="132">
            -84 -96 -67 vhcurveto
            -16 hlineto
            return
          </CharString>
          <CharString index="133" raw="1">
            f720faaa 1c048315 abf72c05 fdff066b
            fb2c05d4 1cfb7df7 041df70f f8d505fb
            4c06251c fabf15f7 16f8f405 f7a606f7
            350a35fb 54fb4afb 3afb28fb 6b1f0e
          </CharString>
          <CharString index="134">
            -102 callgsubr
            -110 1395 rmoveto
            -89 callsubr
            -244 233 rlineto
            return
          </CharString>
          <CharString index="135">
            rmoveto
            37 -116 18 -114 -124 vvcurveto
            -266 -107 -260 -190 -195 vhcurveto
            178 hlineto
            182 174 109 265 270 vvcurveto
            128 -30 150 -43 88 vhcurveto
            endchar
          </CharString>
          <CharString index="136">
            47 callgsubr
            -23 return
          </CharString>
          <CharString index="137">
            176 3 callsubr
            return
          </CharString>
          <CharString index="138">
            rmoveto
            284 195 188 274 185 -129 109 -219 hvcurveto
            -201 hlineto
            73 341 75 callsubr
            -149 -698 rlineto
            -10 -48 -4 -37 -31 vvcurveto
            -180 123 -103 213 vhcurveto
            92 612 rmoveto
            137 75 -60 -109 -166 -115 -123 -156 -128 -63 51 102 17 2 22 6 31 hvcurveto
            49 235 rlineto
            endchar
          </CharString>
          <CharString index="139">
            1575 rmoveto
            -107 callsubr
            404 hmoveto
            -107 callsubr
            return
          </CharString>
          <CharString index="140">
            604 136 rmoveto
            -167 148 callsubr
            220 169 101 -125 -205 -262 -162 -214 -200 hvcurveto
            108 961 rmoveto
            -333 -236 -278 -392 -264 179 -182 260 327 240 284 388 264 -177 180 -260 hvcurveto
            return
          </CharString>
          <CharString index="141">
            176 hlineto
            320 1506 75 callsubr
            return
          </CharString>
          <CharString index="142">
            -34 20 callgsubr
            -250 519 rmoveto
            454 215 379 251 163 96 -139 -223 -457 -212 -375 -250 -167 -96 137 224 vhcurveto
            endchar
          </CharString>
          <CharString index="143">
            189 hlineto
            544 761 31 142 rlineto
            -625 hlineto
            -31 -140 rlineto
            445 hlineto
            -2 -11 rlineto
            endchar
          </CharString>
          <CharString index="144">
            106 720 hmoveto
            838 -39 callgsubr
            -199 hlineto
            -671 -1204 rlineto
            -16 hlineto
            -186 1204 rlineto
            -170 hlineto
            226 -12 callgsubr
            return
          </CharString>
          <CharString index="145">
            329 241 284 388 -44 callgsubr
            return
          </CharString>
          <CharString index="146">
            -164 238 1078 rmoveto
            169 -1078 rlineto
            183 hlineto
            622 1078 162 callgsubr
            -468 -856 rlineto
            -16 hlineto
            -126 856 rlineto
            return
          </CharString>
          <CharString index="147">
            -724 -57 callsubr
            251 32 callsubr
            endchar
          </CharString>
          <CharString index="148">
            212 94 callsubr
            return
          </CharString>
          <CharString index="149">
            rmoveto
            111 91 87 111 111 -91 87 -111 -111 -91 -87 -111 -111 91 -87 111 hvcurveto
            95 vmoveto
            -57 -43 45 57 57 43 45 57 57 43 -45 -57 -57 -43 -45 -57 hvcurveto
            70 545 rmoveto
            -148 -181 rlineto
            161 hlineto
            174 181 rlineto
            endchar
          </CharString>
          <CharString index="150">
            rmoveto
            -172 222 98 callsubr
            198 -222 rlineto
            -289 hmoveto
            66 callsubr
          </CharString>
          <CharString index="151">
            vvcurveto
            -113 100 -81 140 return
          </CharString>
          <CharString index="152" raw="1">
            c01d0e   
          </CharString>
          <CharString index="153">
            621 1620 -22 callgsubr
            return
          </CharString>
          <CharString index="154">
            63 callgsubr
            593 306 rmoveto
            71 53 52 73 72 -53 53 -71 -72 -54 -53 -72 -73 54 -52 72 hvcurveto
            -151 -714 rmoveto
            71 53 52 73 72 -53 53 -71 -72 -54 -53 -72 -73 54 -52 72 hvcurveto
            endchar
          </CharString>
          <CharString index="155">
            rmoveto
            55 41 43 55 55 41 -43 -55 -55 -41 -43 -55 -55 -41 43 55 vhcurveto
            96 -189 rmoveto
            107 87 83 107 107 -87 83 -107 -107 -87 -83 -107 -107 87 -83 107 hvcurveto
            75 567 rmoveto
            -108 -130 rlineto
            139 hlineto
            146 130 rlineto
            endchar
          </CharString>
          <CharString index="156">
            rmoveto
            -139 288 rlineto
            -208 hlineto
            165 -288 rlineto
            395 -156 -96 callsubr
          </CharString>
          <CharString index="157">
            rmoveto
            -27 callgsubr
            -79 -48 36 55 80 62 70 136 37 hvcurveto
            11 3 231 1088 122 callgsubr
            -227 -1068 rlineto
            -140 -41 -78 -111 140 callgsubr
            return
          </CharString>
          <CharString index="158">
            63 callgsubr
            702 550 rmoveto
            433 98 callgsubr
            -433 hlineto
            63 291 rlineto
            -152 hlineto
            -63 -291 rlineto
            -433 -55 callsubr
            433 hlineto
            -62 -291 rlineto
            152 hlineto
            endchar
          </CharString>
          <CharString index="159">
            472 722 472 721 rlineto
            -173 hlineto
            -448 -685 -496 -758 rlineto
            return
          </CharString>
          <CharString index="160">
            rmoveto
            176 hlineto
            return
          </CharString>
          <CharString index="161">
            hmoveto
            175 hlineto
            64 299 rlineto
            195 hlineto
            34 161 rlineto
            -195 hlineto
            88 414 rlineto
            -175 hlineto
            -88 -415 rlineto
            -484 hlineto
            2 12 708 972 rlineto
            -192 hlineto
            -718 -984 -34 -160 rlineto
            684 hlineto
            endchar
          </CharString>
          <CharString index="162">
            53 callsubr
            328 86 callgsubr
            -391 -520 rmoveto
            -107 callsubr
            404 hmoveto
            -107 callsubr
            return
          </CharString>
          <CharString index="163">
            -252 -539 157 callgsubr
            272 539 rlineto
            return
          </CharString>
          <CharString index="164">
            1570 -103 callgsubr
            return
          </CharString>
          <CharString index="165">
            rlineto
            -177 hlineto
            return
          </CharString>
          <CharString index="166">
            rmoveto
            14 callgsubr
            674 hlineto
            return
          </CharString>
          <CharString index="167">
            rmoveto
            202 hlineto
            350 320 rlineto
            -200 hlineto
            -219 -207 rlineto
            -16 hlineto
            -131 207 rlineto
            -200 hlineto
            423 75 rmoveto
            67 52 52 67 67 -52 52 -67 -67 -52 -52 -67 -67 52 -52 67 hvcurveto
            endchar
          </CharString>
          <CharString index="168">
            vvcurveto
            98 -85 62 -134 -30 -36 -6 -8 -24 vhcurveto
            return
          </CharString>
          <CharString index="169">
            rmoveto
            32 149 rlineto
            -1008 hlineto
            -32 -149 rlineto
            return
          </CharString>
          <CharString index="170">
            -168 -30 callgsubr
            return
          </CharString>
          <CharString index="171">
            248 -392 -3 -16 -453 -432 rlineto
            219 hlineto
            439 416 2 8 -262 416 rlineto
            return
          </CharString>
          <CharString index="172">
            -248 392 3 16 453 432 rlineto
            -219 hlineto
            -439 -416 -2 -8 262 -416 rlineto
            return
          </CharString>
          <CharString index="173">
            -87 callgsubr
            endchar
          </CharString>
          <CharString index="174">
            rmoveto
            -54 171 -37 225 275 vvcurveto
            428 177 405 299 309 vhcurveto
            -192 hlineto
            -263 -267 -196 -413 -449 vvcurveto
            -245 46 -291 66 -148 vhcurveto
            endchar
          </CharString>
          <CharString index="175">
            -2 -10 -12 -1 -16 hhcurveto
            -79 -48 36 55 80 83 145 callsubr
            39 12 -226 1443 79 callsubr
            -845 -12 callgsubr
            193 hlineto
            232 413 rlineto
            579 hlineto
            return
          </CharString>
          <CharString index="176">
            -69 -48 -43 -60 -60 48 -43 69 69 48 43 60 60 -48 43 -69 hvcurveto
            return
          </CharString>
          <CharString index="177">
            hlineto
            -184 298 rlineto
            return
          </CharString>
          <CharString index="178" raw="1">
            f7a4f71b 1df93f71 0afdf82f 1d0e
          </CharString>
          <CharString index="179">
            rmoveto
            674 hlineto
            117 callgsubr
            return
          </CharString>
          <CharString index="180">
            rlineto
            -185 hlineto
            return
          </CharString>
          <CharString index="181">
            rmoveto
            31 148 rlineto
            -1007 hlineto
            -31 -148 rlineto
            100 475 rmoveto
            -36 -169 1073 306 31 148 -941 306 -35 -159 729 -206 -4 -16 rlineto
            endchar
          </CharString>
          <CharString index="182">
            rlineto
            -176 hlineto
            return
          </CharString>
          <CharString index="183" raw="1">
            f41df764 f0f3f79e c41fcaf7 bb05fb44
            a01d0b   
          </CharString>
          <CharString index="184" raw="1">
            fbb115f7 3d06f755 f81f05bf fbec0768
            fb36f731 1d0b  
          </CharString>
          <CharString index="185">
            -56 1873 83 callsubr
            return
          </CharString>
          <CharString index="186">
            rlineto
            -167 hlineto
            return
          </CharString>
          <CharString index="187">
            -104 308 hmoveto
            131 625 rlineto
            637 hlineto
            34 160 rlineto
            -637 hlineto
            107 496 rlineto
            693 -26 callsubr
            -878 -92 callgsubr
            return
          </CharString>
          <CharString index="188">
            -92 callgsubr
            456 return
          </CharString>
          <CharString index="189" raw="1">
            fbb115f7 3506f700 f85305fb 9f0663fb
            3605f606 0b  
          </CharString>
          <CharString index="190">
            rmoveto
            -181 136 -117 206 199 144 -1 callsubr
            return
          </CharString>
          <CharString index="191">
            vvcurveto
            215 147 103 226 111 137 -27 -37 64 vhcurveto
            35 158 rlineto
            39 -79 -147 26 -116 hhcurveto
            -394 -174 -200 -309 return
          </CharString>
          <CharString index="192">
            rrcurveto
            -15 callsubr
            return
          </CharString>
          <CharString index="193">
            528 158 callgsubr
            101 callgsubr
            return
          </CharString>
          <CharString index="194">
            hlineto
            -320 -1506 rlineto
            return
          </CharString>
          <CharString index="195">
            1124 1078 rmoveto
            -171 hlineto
            5 -22 1 -23 -22 vvcurveto
            -257 -182 -287 -275 -309 vhcurveto
            -19 hlineto
            -92 920 rlineto
            -183 hlineto
            return
          </CharString>
          <CharString index="196">
            -60 callsubr
            endchar
          </CharString>
          <CharString index="197">
            rmoveto
            -43 callgsubr
            return
          </CharString>
          <CharString index="198">
            95 447 118 callsubr
            273 135 callgsubr
            return
          </CharString>
          <CharString index="199">
            rmoveto
            -104 -488 rlineto
            120 hlineto
            154 488 rlineto
            return
          </CharString>
          <CharString index="200">
            -21 callgsubr
            -176 hlineto
            return
          </CharString>
          <CharString index="201">
            1808 rmoveto
            -89 callsubr
            -244 233 rlineto
            return
          </CharString>
          <CharString index="202">
            rmoveto
            -386 -1813 rlineto
            464 hlineto
            29 135 rlineto
            -296 hlineto
            328 1542 rlineto
            296 98 callgsubr
            endchar
          </CharString>
          <CharString index="203">
            -154 hlineto
            -105 -27 -81 -64 -112 hhcurveto
            -113 -76 66 103 -5 hvcurveto
            return
          </CharString>
          <CharString index="204">
            199 144 29 callgsubr
            return
          </CharString>
          <CharString index="205">
            rlineto
            -218 hlineto
            return
          </CharString>
          <CharString index="206">
            rlineto
            -176 25 callgsubr
            return
          </CharString>
          <CharString index="207">
            1873 -71 callsubr
            return
          </CharString>
          <CharString index="208">
            hmoveto
            180 -25 callsubr
            -179 hlineto
            -443 -276 -44 -206 423 262 -18 callgsubr
            endchar
          </CharString>
          <CharString index="209">
            hmoveto
            197 hlineto
            913 1276 36 167 rlineto
            -925 hlineto
            -35 -161 rlineto
            737 hlineto
            -3 -16 rlineto
            endchar
          </CharString>
          <CharString index="210">
            rmoveto
            -625 445 3 16 790 327 40 188 -988 -433 -30 -142 771 -585 rlineto
            endchar
          </CharString>
          <CharString index="211">
            hlineto
            19 100 rlineto
            121 23 61 52 return
          </CharString>
          <CharString index="212">
            hlineto
            -279 -1313 rlineto
            return
          </CharString>
          <CharString index="213">
            hlineto
            -15 callsubr
            return
          </CharString>
          <CharString index="214">
            hlineto
            273 1281 118 callsubr
            -309 -12 callgsubr
            1146 117 callsubr
            endchar
          </CharString>
          <CharString index="215">
            -34 rmoveto
            361 return
          </CharString>
          <CharString index="216">
            hlineto
            198 934 75 callsubr
            -198 -934 rlineto
            return
          </CharString>
          <CharString index="217">
            hlineto
            104 488 rlineto
            return
          </CharString>
          <CharString index="218">
            -244 -166 179 267 417 249 314 328 241 165 -180 -266 return
          </CharString>
          <CharString index="219">
            rmoveto
            114 callgsubr
            return
          </CharString>
          <CharString index="220">
            rmoveto
            190 hlineto
            297 return
          </CharString>
          <CharString index="221" raw="1">
            54fb9090 79fb0dfc cc05f70c 06f70df8
            cc969dc2 f790050b  
          </CharString>
          <CharString index="222">
            hlineto
            60 284 rlineto
            -1848 hlineto
            31 148 rmoveto
            return
          </CharString>
          <CharString index="223">
            176 -24 callgsubr
            return
          </CharString>
          <CharString index="224">
            hlineto
            -61 -285 rlineto
            return
          </CharString>
          <CharString index="225">
            rlineto
            -180 hlineto
            return
          </CharString>
          <CharString index="226">
            -704 317 129 callgsubr
          </CharString>
          <CharString index="227">
            -154 hlineto
            -105 -27 -81 -64 -112 hhcurveto
            -110 -86 66 90 hvcurveto
            2 0 4 7 vvcurveto
            return
          </CharString>
          <CharString index="228">
            16 hlineto
            -33 -146 rlineto
            return
          </CharString>
          <CharString index="229">
            rlineto
            187 hlineto
            return
          </CharString>
          <CharString index="230">
            vvcurveto
            -243 -225 -146 -159 -27 vhcurveto
            -32 -152 rlineto
            1062 hlineto
            endchar
          </CharString>
          <CharString index="231">
            rlineto
            -205 hlineto
            return
          </CharString>
          <CharString index="232">
            132 620 rlineto
            8 hlineto
            104 -586 rlineto
            108 hlineto
            353 586 rlineto
            return
          </CharString>
          <CharString index="233">
            rlineto
            -207 hlineto
            return
          </CharString>
          <CharString index="234">
            -184 hlineto
            -203 -952 rlineto
            -225 -48 -167 -134 -214 hhcurveto
            return
          </CharString>
          <CharString index="235">
            rmoveto
            385 1813 rlineto
            -146 hlineto
            -385 -1813 rlineto
            endchar
          </CharString>
          <CharString index="236">
            rlineto
            -216 hlineto
            return
          </CharString>
          <CharString index="237" raw="1">
            f710f91a 15f86cf7 61a9f723 fc6cfb61
            050b   
          </CharString>
          <CharString index="238">
            44 callgsubr
            endchar
          </CharString>
          <CharString index="239">
            hvcurveto
            -151 hlineto
            -2 -15 -1 -14 -13 vvcurveto
            return
          </CharString>
          <CharString index="240">
            -448 -333 -388 -526 -345 249 -252 337 return
          </CharString>
          <CharString index="241" raw="1">
            15f8061c 06ce05fb 1a06fc06 1cf93205
            0b   
          </CharString>
          <CharString index="242">
            30 144 rlineto
            return
          </CharString>
          <CharString index="243">
            hvcurveto
            -2 callsubr
            return
          </CharString>
          <CharString index="244">
            rmoveto
            1254 111 callgsubr
            -1254 hlineto
            endchar
          </CharString>
          <CharString index="245">
            hmoveto
            116 callsubr
            return
          </CharString>
          <CharString index="246">
            312 62 callsubr
            return
          </CharString>
          <CharString index="247">
            -620 rlineto
            144 hlineto
            187 880 rlineto
            -188 hlineto
            return
          </CharString>
          <CharString index="248">
            rmoveto
            142 hlineto
            -49 1813 rlineto
            -144 hlineto
            endchar
          </CharString>
          <CharString index="249">
            35 163 rlineto
            return
          </CharString>
          <CharString index="250">
            97 callsubr
            -154 hlineto
            return
          </CharString>
          <CharString index="251">
            643 rlineto
            -175 hlineto
            -187 -880 rlineto
            endchar
          </CharString>
          <CharString index="252">
            66 135 42 hvcurveto
            return
          </CharString>
          <CharString index="253">
            188 131 return
          </CharString>
          <CharString index="254">
            hmoveto
            184 hlineto
            return
          </CharString>
          <CharString index="255">
            -30 callgsubr
            295 151 199 return
          </CharString>
          <CharString index="256">
            rmoveto
            114 646 -561 -323 rlineto
            endchar
          </CharString>
          <CharString index="257">
            429 122 callgsubr
            return
          </CharString>
          <CharString index="258" raw="1">
            fbb115f7 40060b  
          </CharString>
          <CharString index="259">
            -35 -162 rlineto
            return
          </CharString>
          <CharString index="260">
            32 150 rlineto
            -1024 hlineto
            -32 -150 rlineto
            return
          </CharString>
          <CharString index="261">
            rmoveto
            -646 hlineto
            208 -544 rlineto
            endchar
          </CharString>
          <CharString index="262">
            hlineto
            -33 -154 rlineto
            return
          </CharString>
          <CharString index="263">
            rlineto
            -179 hlineto
            return
          </CharString>
          <CharString index="264">
            rlineto
            -157 hlineto
            return
          </CharString>
          <CharString index="265">
            -86 -78 44 callsubr
            vhcurveto
            return
          </CharString>
          <CharString index="266">
            -183 hlineto
            -91 -49 -91 -46 -131 hhcurveto
            return
          </CharString>
          <CharString index="267">
            rmoveto
            192 hlineto
            return
          </CharString>
          <CharString index="268">
            183 127 return
          </CharString>
          <CharString index="269">
            rlineto
            173 hlineto
            return
          </CharString>
          <CharString index="270">
            73 346 rlineto
            return
          </CharString>
        <CharString name=".notdef">
          774 -65 -494 rmoveto
          1848 hlineto
          61 284 rlineto
          -1849 hlineto
          32 148 rmoveto
          1848 hlineto
          60 284 rlineto
          -1848 hlineto
          32 148 rmoveto
          1848 115 callsubr
          1849 115 callsubr
          1849 115 callsubr
          1848 hlineto
          61 284 rlineto
          -1849 hlineto
          endchar
        </CharString>
        <CharString name=".null">
          endchar
        </CharString>
        <CharString name="A">
          -102 callgsubr
          endchar
        </CharString>
        <CharString name="A.mini">
          -82 callsubr
          endchar
        </CharString>
        <CharString name="AE">
          692 -38 callgsubr
          endchar
        </CharString>
        <CharString name="AEacute">
          692 -38 callgsubr
          490 1116 rmoveto
          37 callgsubr
        </CharString>
        <CharString name="AEmacron">
          692 -38 callgsubr
          752 1297 -96 callsubr
        </CharString>
        <CharString name="Aacute">
          -102 callgsubr
          66 1162 rmoveto
          37 callgsubr
        </CharString>
        <CharString name="Abreve">
          -102 callgsubr
          -376 1460 rmoveto
          66 callsubr
        </CharString>
        <CharString name="Abreveacute">
          -102 callgsubr
          -145 1460 39 callgsubr
        </CharString>
        <CharString name="Abreveacute.mini">
          -82 callsubr
          -393 1330 83 callsubr
          81 hmoveto
          192 hlineto
          294 207 98 callsubr
          endchar
        </CharString>
        <CharString name="Abrevedotbelow">
          -102 callgsubr
          -376 1460 rmoveto
          -87 callgsubr
          -210 -2275 -101 callsubr
        </CharString>
        <CharString name="Abrevegrave">
          -102 callgsubr
          105 1460 43 callsubr
        </CharString>
        <CharString name="Abrevegrave.mini">
          -82 callsubr
          -393 1330 83 callsubr
          331 hmoveto
          -172 207 98 callsubr
          198 -207 rlineto
          endchar
        </CharString>
        <CharString name="Abrevehookabove">
          -102 callgsubr
          -162 1636 24 callsubr
        </CharString>
        <CharString name="Abrevehookabove.mini">
          -82 callsubr
          -393 1330 rmoveto
          -180 135 -118 207 143 callsubr
          -106 -27 -82 -63 -111 hhcurveto
          -113 -76 66 103 -5 hvcurveto
          64 176 rmoveto
          6 29 32 4 28 hhcurveto
          65 35 -22 -41 -51 -44 -37 -78 -13 hvcurveto
          48 -99 rlineto
          133 32 86 87 100 vvcurveto
          96 -85 62 -134 -29 -36 -6 -8 -25 vhcurveto
          endchar
        </CharString>
        <CharString name="Abrevetilde">
          -102 callgsubr
          110 1441 16 callgsubr
        </CharString>
        <CharString name="Abrevetilde.mini">
          -82 callsubr
          -432 1270 rmoveto
          -102 134 -136 208 199 154 104 134 25 vhcurveto
          -154 hlineto
          -67 -17 -81 -46 -122 hhcurveto
          -115 -74 60 53 -5 hvcurveto
          341 41 -34 callgsubr
        </CharString>
        <CharString name="Acaron">
          -102 callgsubr
          -138 1162 -80 callgsubr
          endchar
        </CharString>
        <CharString name="Acircumflex">
          -102 callgsubr
          107 1460 -71 callsubr
          endchar
        </CharString>
        <CharString name="Acircumflexacute">
          27 callsubr
          10 45 113 callsubr
          242 129 callsubr
          endchar
        </CharString>
        <CharString name="Acircumflexacute.mini">
          -82 callsubr
          77 1265 rmoveto
          -202 hlineto
          -89 callsubr
          -234 278 113 callsubr
          227 129 callsubr
          endchar
        </CharString>
        <CharString name="Acircumflexdotbelow">
          -102 callgsubr
          107 1460 -71 callsubr
          -727 -1977 -101 callsubr
        </CharString>
        <CharString name="Acircumflexgrave">
          27 callsubr
          280 45 rmoveto
          -169 242 129 callsubr
          195 -242 rlineto
          endchar
        </CharString>
        <CharString name="Acircumflexgrave.mini">
          -82 callsubr
          77 1265 rmoveto
          -202 hlineto
          -89 callsubr
          36 278 rmoveto
          -169 227 129 callsubr
          195 -227 rlineto
          endchar
        </CharString>
        <CharString name="Acircumflexhookabove">
          27 callsubr
          56 143 rmoveto
          6 22 34 3 38 hhcurveto
          68 36 -27 -39 -44 -39 -39 -68 -24 hvcurveto
          78 -90 rlineto
          103 39 77 94 86 vvcurveto
          99 -89 66 -139 -36 -39 -5 -8 -21 vhcurveto
          endchar
        </CharString>
        <CharString name="Acircumflexhookabove.mini">
          -82 callsubr
          77 1265 rmoveto
          -202 hlineto
          -89 callsubr
          -188 381 57 callgsubr
          -42 -70 -19 hvcurveto
          84 -84 rlineto
          114 38 66 84 93 61 callsubr
          endchar
        </CharString>
        <CharString name="Acircumflextilde">
          -102 callgsubr
          110 1441 -94 callgsubr
          -220 -46 rmoveto
          -89 callsubr
          -244 233 rlineto
          endchar
        </CharString>
        <CharString name="Acircumflextilde.mini">
          -82 callsubr
          77 1265 rmoveto
          -202 hlineto
          -89 callsubr
          -176 279 -34 callgsubr
        </CharString>
        <CharString name="Acyrillic">
          -102 callgsubr
          endchar
        </CharString>
        <CharString name="Adblgrave">
          -102 callgsubr
          -346 1162 -23 callsubr
          endchar
        </CharString>
        <CharString name="Adieresis">
          -102 callgsubr
          -224 1162 rmoveto
          -107 callsubr
          404 hmoveto
          -107 callsubr
          endchar
        </CharString>
        <CharString name="Adieresismacron">
          -102 callgsubr
          -221 1396 -33 callsubr
        </CharString>
        <CharString name="Adieresismacron.mini">
          -82 callsubr
          -324 1389 72 callsubr
          57 -487 rmoveto
          -107 callsubr
          404 hmoveto
          -107 callsubr
          endchar
        </CharString>
        <CharString name="Adotaccent">
          -102 callgsubr
          -21 1162 -101 callsubr
        </CharString>
        <CharString name="Adotbelow">
          -102 callgsubr
          -436 -815 -101 callsubr
        </CharString>
        <CharString name="Adotmacron">
          -102 callgsubr
          -22 1164 -13 callsubr
          415 485 59 callsubr
          endchar
        </CharString>
        <CharString name="Adotmacron.mini">
          -82 callsubr
          -37 1034 -13 callsubr
          387 355 -22 callgsubr
          endchar
        </CharString>
        <CharString name="Agrave">
          -102 callgsubr
          -150 1162 -11 callsubr
          endchar
        </CharString>
        <CharString name="Ahookabove">
          -102 callgsubr
          -154 1378 -59 callsubr
          endchar
        </CharString>
        <CharString name="Ainvertedbreve">
          -102 callgsubr
          344 1162 -53 callgsubr
          endchar
        </CharString>
        <CharString name="Alphagreek">
          -102 callgsubr
          endchar
        </CharString>
        <CharString name="Alphatonosgreek">
          108 886 1207 rmoveto
          16 hlineto
          95 -641 rlineto
          -473 hlineto
          551 -566 53 callsubr
          -226 1443 79 callsubr
          -845 -12 callgsubr
          193 hlineto
          232 413 rlineto
          579 hlineto
          -771 692 -19 callsubr
        </CharString>
        <CharString name="Amacron">
          -102 callgsubr
          328 1343 -96 callsubr
        </CharString>
        <CharString name="Aogonek">
          106 1157 -288 rmoveto
          68 callsubr
          54 -384 rlineto
          -169 -57 -85 -102 -108 vvcurveto
          -112 99 -82 141 26 27 4 6 20 vhcurveto
          -244 1629 rmoveto
          16 hlineto
          95 -641 rlineto
          -473 hlineto
          endchar
        </CharString>
        <CharString name="Aogonek.mini">
          106 884 1207 rmoveto
          16 hlineto
          95 -641 rlineto
          -473 hlineto
          547 -537 rmoveto
          -169 -57 -85 -102 -108 vvcurveto
          -112 99 -82 141 26 27 4 6 20 vhcurveto
          29 134 rlineto
          68 callsubr
          endchar
        </CharString>
        <CharString name="Aring">
          -102 callgsubr
          -1 1148 -86 callgsubr
        </CharString>
        <CharString name="Aringacute">
          -102 callgsubr
          -15 1120 42 callsubr
        </CharString>
        <CharString name="Aringacute.mini">
          -82 callsubr
          -163 1159 48 callsubr
        </CharString>
        <CharString name="Aringbelow">
          -102 callgsubr
          -449 -986 -86 callgsubr
        </CharString>
        <CharString name="Aringbelow.mini">
          -102 callgsubr
          -430 -577 6 callsubr
        </CharString>
        <CharString name="Atilde">
          -102 callgsubr
          132 1157 -103 callgsubr
          endchar
        </CharString>
        <CharString name="B">
          72 713 -81 callsubr
          endchar
        </CharString>
        <CharString name="Bdotaccent">
          72 713 -81 callsubr
          198 1416 -101 callsubr
        </CharString>
        <CharString name="Bdotbelow">
          72 713 -81 callsubr
          -183 -561 -101 callsubr
        </CharString>
        <CharString name="Becyrillic">
          47 703 hmoveto
          327 223 242 245 233 -191 148 -270 hvcurveto
          -290 hlineto
          88 413 rlineto
          670 -26 callsubr
          -855 -92 callgsubr
          218 160 rmoveto
          117 548 rlineto
          287 hlineto
          161 callsubr
          -77 -171 -165 -166 -135 -215 hvcurveto
          endchar
        </CharString>
        <CharString name="Betagreek">
          72 713 -81 callsubr
          endchar
        </CharString>
        <CharString name="Blinebelow">
          72 713 -81 callsubr
          169 -371 -96 callsubr
        </CharString>
        <CharString name="C">
          189 1324 992 -97 callgsubr
          endchar
        </CharString>
        <CharString name="Cacute">
          192 1324 992 -97 callgsubr
          -226 585 rmoveto
          37 callgsubr
        </CharString>
        <CharString name="Ccaron">
          192 1324 992 -97 callgsubr
          -430 585 -80 callgsubr
          endchar
        </CharString>
        <CharString name="Ccedilla">
          192 1507 992 rmoveto
          2 0 2 2 vvcurveto
          275 -232 204 -313 -437 -324 -391 -532 -329 194 -226 298 -30 vhcurveto
          -70 -112 -13 -90 rlineto
          53 hlineto
          87 47 -26 -46 -43 -40 -27 -64 -45 -67 13 15 -35 hvcurveto
          -23 -108 rlineto
          -22 49 69 -14 57 hhcurveto
          144 103 81 114 90 -61 53 -118 13 hvcurveto
          68 109 276 22 204 152 66 237 rlinecurve
          -190 hlineto
          -149 -52 -162 -98 -195 hhcurveto
          -241 -152 169 271 416 245 321 315 215 146 -123 -193 15 hvcurveto
          -1 0 0 -1 vvcurveto
          endchar
        </CharString>
        <CharString name="Ccedilla.mini">
          192 1507 992 rmoveto
          2 0 2 2 vvcurveto
          275 -232 204 -313 -437 -324 -391 -532 -327 191 -225 294 -32 vhcurveto
          -63 -108 -12 -68 rlineto
          66 hlineto
          88 36 -21 -41 -41 -40 -17 -69 -38 -41 5 9 -29 hvcurveto
          -21 -98 rlineto
          -12 30 71 -10 35 hhcurveto
          148 97 63 105 95 -58 50 -122 5 hvcurveto
          51 82 286 17 211 153 68 242 rlinecurve
          -190 hlineto
          -149 -52 -162 -98 -195 hhcurveto
          -241 -152 169 271 416 245 321 315 215 146 -123 -193 15 hvcurveto
          -1 0 0 -1 vvcurveto
          endchar
        </CharString>
        <CharString name="Ccedillaacute">
          192 1493 1875 rmoveto
          -226 hlineto
          -373 -298 rlineto
          204 hlineto
          409 -585 rmoveto
          2 0 2 2 vvcurveto
          275 -232 204 -313 -437 -324 -391 -532 -329 194 -226 298 -30 vhcurveto
          -70 -112 -13 -90 rlineto
          53 hlineto
          87 47 -26 -46 -43 -40 -27 -64 -45 -67 13 15 -35 hvcurveto
          -23 -108 rlineto
          -22 49 69 -14 57 hhcurveto
          144 103 81 114 90 -61 53 -118 13 hvcurveto
          68 109 276 22 204 152 66 237 rlinecurve
          -190 hlineto
          -149 -52 -162 -98 -195 hhcurveto
          -241 -152 169 271 416 245 321 315 215 146 -123 -193 15 hvcurveto
          -1 0 0 -1 vvcurveto
          endchar
        </CharString>
        <CharString name="Ccedillaacute.mini">
          192 1493 1875 rmoveto
          -226 hlineto
          -373 -298 rlineto
          204 hlineto
          409 -585 rmoveto
          2 0 2 2 vvcurveto
          275 -232 204 -313 -437 -324 -391 -532 -327 191 -225 294 -32 vhcurveto
          -63 -108 -12 -68 rlineto
          66 hlineto
          88 36 -21 -41 -41 -40 -17 -69 -38 -41 5 9 -29 hvcurveto
          -21 -98 rlineto
          -12 30 71 -10 35 hhcurveto
          148 97 63 105 95 -58 50 -122 5 hvcurveto
          51 82 286 17 211 153 68 242 rlinecurve
          -190 hlineto
          -149 -52 -162 -98 -195 hhcurveto
          -241 -152 169 271 416 245 321 315 215 146 -123 -193 15 hvcurveto
          -1 0 0 -1 vvcurveto
          endchar
        </CharString>
        <CharString name="Ccircumflex">
          192 1324 992 -97 callgsubr
          -185 883 -71 callsubr
          endchar
        </CharString>
        <CharString name="Cdotaccent">
          192 1324 992 -97 callgsubr
          -313 585 -101 callsubr
        </CharString>
        <CharString name="Checyrillic">
          35 callgsubr
          endchar
        </CharString>
        <CharString name="Chigreek">
          116 31 -41 callsubr
          endchar
        </CharString>
        <CharString name="D">
          212 430 1443 52 callgsubr
        </CharString>
        <CharString name="Dcaron">
          212 430 1443 -90 callsubr
          379 1415 -80 callgsubr
          endchar
        </CharString>
        <CharString name="Dcircumflexbelow">
          212 430 1443 -90 callsubr
          268 -302 -59 callgsubr
          endchar
        </CharString>
        <CharString name="Dcommaaccent">
          212 430 1443 -90 callsubr
          95 -678 -37 callsubr
        </CharString>
        <CharString name="Dcommaaccent.mini">
          212 430 1443 -90 callsubr
          109 -592 -20 callgsubr
        </CharString>
        <CharString name="Dcroat">
          212 341 160 rmoveto
          107 503 rlineto
          219 hlineto
          35 163 rlineto
          -219 hlineto
          97 457 rlineto
          239 hlineto
          288 169 -178 -302 -369 -236 -274 -317 hvcurveto
          -293 1283 rmoveto
          -130 -617 rlineto
          -184 hlineto
          -35 -163 rlineto
          184 hlineto
          -140 -663 rlineto
          591 hlineto
          420 326 347 465 392 -227 239 -402 hvcurveto
          endchar
        </CharString>
        <CharString name="Ddotaccent">
          212 430 1443 -90 callsubr
          496 1415 -101 callsubr
        </CharString>
        <CharString name="Ddotbelow">
          212 430 1443 -90 callsubr
          156 -562 -101 callsubr
        </CharString>
        <CharString name="Decyrillic">
          236 527 531 rmoveto
          206 750 rlineto
          555 hlineto
          -238 -1119 rlineto
          -703 hlineto
          3 12 89 85 43 109 45 163 rlinecurve
          -381 -531 rmoveto
          1067 117 callsubr
          167 hlineto
          91 callsubr
          -903 hlineto
          -244 -897 -52 -190 -76 -138 -111 -56 rlinecurve
          -107 hlineto
          -95 -447 rlineto
          166 hlineto
          endchar
        </CharString>
        <CharString name="Deltagreek">
          120 1229 hmoveto
          27 126 -226 1317 79 callsubr
          -791 -1317 -27 -126 rlineto
          854 1221 rmoveto
          6 hlineto
          170 -1046 -3 -13 rlineto
          -784 hlineto
          3 15 rlineto
          endchar
        </CharString>
        <CharString name="Djecyrillic">
          451 493 147 callsubr
          114 535 rlineto
          97 65 2 callsubr
          -12 hlineto
          110 520 rlineto
          463 116 callgsubr
          152 callsubr
          463 hlineto
          endchar
        </CharString>
        <CharString name="Dlinebelow">
          212 430 1443 -90 callsubr
          508 -372 -96 callsubr
        </CharString>
        <CharString name="Dzecyrillic">
          2 119 400 rmoveto
          -103 callsubr
          endchar
        </CharString>
        <CharString name="Dzhecyrillic">
          243 1264 hmoveto
          -48 callsubr
          -183 155 callgsubr
          -768 hlineto
          272 1279 rlineto
          -180 -92 callgsubr
          482 117 callsubr
          167 hlineto
          61 285 rlineto
          endchar
        </CharString>
        <CharString name="E">
          -55 1053 -102 callsubr
          endchar
        </CharString>
        <CharString name="E.mini">
          -46 callsubr
          endchar
        </CharString>
        <CharString name="Eacute">
          -55 1053 -102 callsubr
          1575 vmoveto
          37 callgsubr
        </CharString>
        <CharString name="Ebreve">
          -55 1053 -102 callsubr
          -442 1873 rmoveto
          66 callsubr
        </CharString>
        <CharString name="Ecaron">
          -55 1053 -102 callsubr
          -204 1575 -80 callgsubr
          endchar
        </CharString>
        <CharString name="Ecedilla">
          -55 1291 1281 rmoveto
          35 162 rlineto
          -896 hlineto
          -307 -1443 rlineto
          384 hlineto
          -89 -143 -13 -90 rlineto
          53 hlineto
          87 47 -26 -46 -43 -40 -27 -64 -45 -67 13 15 -35 hvcurveto
          -23 -108 rlineto
          -22 49 69 -14 57 hhcurveto
          144 103 81 114 90 -61 53 -118 13 hvcurveto
          87 140 rlineto
          371 hlineto
          34 162 rlineto
          -712 hlineto
          106 496 rlineto
          674 hlineto
          34 160 rlineto
          -675 hlineto
          100 463 rlineto
          endchar
        </CharString>
        <CharString name="Ecedilla.mini">
          -55 1291 1281 rmoveto
          35 162 rlineto
          -896 hlineto
          -307 -1443 rlineto
          375 hlineto
          -80 -138 -12 -68 rlineto
          66 hlineto
          88 36 -21 -41 -41 -40 -17 -69 -38 -41 5 9 -29 hvcurveto
          -21 -98 rlineto
          -12 30 71 -10 35 hhcurveto
          148 97 63 105 95 -58 50 -122 5 hvcurveto
          72 114 rlineto
          388 hlineto
          34 162 rlineto
          -712 hlineto
          106 496 rlineto
          674 hlineto
          34 160 rlineto
          -675 hlineto
          100 463 rlineto
          endchar
        </CharString>
        <CharString name="Ecedillabreve">
          -55 1143 1873 rmoveto
          -105 -27 -81 -64 -112 hhcurveto
          -110 -86 66 90 hvcurveto
          2 0 4 7 vvcurveto
          -150 hlineto
          -4 0 -3 -3 vvcurveto
          -171 139 -117 203 192 151 114 184 35 vhcurveto
          -6 -592 rmoveto
          35 162 rlineto
          -896 hlineto
          -307 -1443 rlineto
          384 hlineto
          -89 -143 -13 -90 rlineto
          53 hlineto
          87 47 -26 -46 -43 -40 -27 -64 -45 -67 13 15 -35 hvcurveto
          -23 -108 rlineto
          -22 49 69 -14 57 hhcurveto
          144 103 81 114 90 -61 53 -118 13 hvcurveto
          87 140 rlineto
          371 hlineto
          34 162 rlineto
          -712 hlineto
          106 496 rlineto
          674 hlineto
          34 160 rlineto
          -675 hlineto
          100 463 rlineto
          endchar
        </CharString>
        <CharString name="Ecedillabreve.mini">
          -55 1143 1873 rmoveto
          -105 -27 -81 -64 -112 hhcurveto
          -110 -86 66 90 hvcurveto
          2 0 4 7 vvcurveto
          -150 hlineto
          -4 0 -3 -3 vvcurveto
          -171 139 -117 203 192 151 114 184 35 vhcurveto
          -6 -592 rmoveto
          35 162 rlineto
          -896 hlineto
          -307 -1443 rlineto
          375 hlineto
          -80 -138 -12 -68 rlineto
          66 hlineto
          88 36 -21 -41 -41 -40 -17 -69 -38 -41 5 9 -29 hvcurveto
          -21 -98 rlineto
          -12 30 71 -10 35 hhcurveto
          148 97 63 105 95 -58 50 -122 5 hvcurveto
          72 114 rlineto
          388 hlineto
          34 162 rlineto
          -712 hlineto
          106 496 rlineto
          674 hlineto
          34 160 rlineto
          -675 hlineto
          100 463 rlineto
          endchar
        </CharString>
        <CharString name="Ecircumflex">
          -55 1053 -102 callsubr
          41 100 callsubr
          endchar
        </CharString>
        <CharString name="Ecircumflexacute">
          -55 1053 -102 callsubr
          -176 94 callsubr
          10 45 113 callsubr
          242 129 callsubr
          endchar
        </CharString>
        <CharString name="Ecircumflexacute.mini">
          -46 callsubr
          -1 1678 rmoveto
          -202 hlineto
          -89 callsubr
          -234 278 113 callsubr
          227 129 callsubr
          endchar
        </CharString>
        <CharString name="Ecircumflexbelow">
          -55 1053 -102 callsubr
          -396 -142 -59 callgsubr
          endchar
        </CharString>
        <CharString name="Ecircumflexdotbelow">
          -55 1053 -102 callsubr
          41 100 callsubr
          -733 -1977 -101 callsubr
        </CharString>
        <CharString name="Ecircumflexgrave">
          -55 1053 -102 callsubr
          -176 94 callsubr
          280 45 rmoveto
          -169 242 129 callsubr
          195 -242 rlineto
          endchar
        </CharString>
        <CharString name="Ecircumflexgrave.mini">
          -46 callsubr
          -1 1678 rmoveto
          -202 hlineto
          -89 callsubr
          36 278 rmoveto
          -169 227 129 callsubr
          195 -227 rlineto
          endchar
        </CharString>
        <CharString name="Ecircumflexhookabove">
          -55 1053 -102 callsubr
          -176 94 callsubr
          56 143 rmoveto
          6 22 34 3 38 hhcurveto
          68 36 -27 -39 -44 -39 -39 -68 -24 hvcurveto
          78 -90 rlineto
          103 39 77 94 86 vvcurveto
          99 -89 66 -139 -36 -39 -5 -8 -21 vhcurveto
          endchar
        </CharString>
        <CharString name="Ecircumflexhookabove.mini">
          -46 callsubr
          -1 1678 rmoveto
          -202 hlineto
          -89 callsubr
          -188 381 57 callgsubr
          -42 -70 -19 hvcurveto
          84 -84 rlineto
          114 38 66 84 93 61 callsubr
          endchar
        </CharString>
        <CharString name="Ecircumflextilde">
          -55 1053 -102 callsubr
          44 1854 -94 callgsubr
          -220 -46 rmoveto
          -89 callsubr
          -244 233 rlineto
          endchar
        </CharString>
        <CharString name="Ecircumflextilde.mini">
          -46 callsubr
          -1 1678 rmoveto
          -202 hlineto
          -89 callsubr
          -176 279 -34 callgsubr
        </CharString>
        <CharString name="Ecyrillic">
          11 callgsubr
          endchar
        </CharString>
        <CharString name="Edblgrave">
          -55 1053 -102 callsubr
          -412 1575 -23 callsubr
          endchar
        </CharString>
        <CharString name="Edieresis">
          -55 1053 -102 callsubr
          -290 32 callsubr
          endchar
        </CharString>
        <CharString name="Edotaccent">
          -55 1053 -102 callsubr
          -87 1575 -101 callsubr
        </CharString>
        <CharString name="Edotbelow">
          -55 1053 -102 callsubr
          -508 24 callgsubr
          endchar
        </CharString>
        <CharString name="Efcyrillic">
          426 875 -20 rmoveto
          32 151 rlineto
          448 13 328 296 390 vvcurveto
          290 -199 188 -324 14 vhcurveto
          30 141 rlineto
          -178 hlineto
          -30 -141 rlineto
          -448 -13 -328 -296 -390 vvcurveto
          -290 199 -188 324 -14 vhcurveto
          -32 -151 rlineto
          -308 647 rmoveto
          295 237 226 322 13 vhcurveto
          -185 -869 rlineto
          -233 7 -141 127 201 vvcurveto
          1111 199 rmoveto
          -295 -236 -226 -323 -13 vhcurveto
          185 869 rlineto
          233 -7 141 -127 -201 vvcurveto
          endchar
        </CharString>
        <CharString name="Egrave">
          -55 1053 -102 callsubr
          -216 136 callgsubr
          endchar
        </CharString>
        <CharString name="Ehookabove">
          -55 1053 -102 callsubr
          -220 1791 -59 callsubr
          endchar
        </CharString>
        <CharString name="Einvertedbreve">
          -55 1053 -102 callsubr
          278 1575 -53 callgsubr
          endchar
        </CharString>
        <CharString name="Elcyrillic">
          160 1181 hmoveto
          -42 callgsubr
        </CharString>
        <CharString name="Emacron">
          -55 1053 -102 callsubr
          262 1756 -96 callsubr
        </CharString>
        <CharString name="Emacronacute">
          -55 1053 -102 callsubr
          233 1620 -22 callgsubr
          285 253 160 callsubr
          293 222 98 callsubr
          endchar
        </CharString>
        <CharString name="Emacronacute.mini">
          -46 callsubr
          206 1490 -22 callgsubr
          285 253 160 callsubr
          293 207 98 callsubr
          endchar
        </CharString>
        <CharString name="Emacrongrave">
          -55 1053 -102 callsubr
          233 1620 -22 callgsubr
          497 253 rmoveto
          -173 222 98 callsubr
          199 -222 rlineto
          endchar
        </CharString>
        <CharString name="Emacrongrave.mini">
          -46 callsubr
          206 1490 -22 callgsubr
          497 253 rmoveto
          -173 207 98 callsubr
          199 -207 rlineto
          endchar
        </CharString>
        <CharString name="Emcyrillic">
          538 305 41 callgsubr
        </CharString>
        <CharString name="Encyrillic">
          268 1289 19 callgsubr
        </CharString>
        <CharString name="Eogonek">
          -55 123 hmoveto
          640 hlineto
          -3 -16 rlineto
          -112 -45 -69 -81 10 callgsubr
          83 145 callsubr
          45 14 34 160 rlineto
          -712 hlineto
          106 496 rlineto
          674 hlineto
          34 160 rlineto
          -675 hlineto
          100 463 rlineto
          711 -26 callsubr
          -896 hlineto
          endchar
        </CharString>
        <CharString name="Eogonek.mini">
          -55 763 hmoveto
          -3 -16 rlineto
          -112 -45 -69 -81 10 callgsubr
          82 70 136 39 hvcurveto
          45 13 34 160 rlineto
          -712 hlineto
          106 496 rlineto
          674 hlineto
          34 160 rlineto
          -675 hlineto
          100 463 rlineto
          711 -26 callsubr
          -896 -92 callgsubr
          endchar
        </CharString>
        <CharString name="Epsilongreek">
          -54 1053 -102 callsubr
          endchar
        </CharString>
        <CharString name="Epsilontonosgreek">
          309 1416 -102 callsubr
          -1134 1105 -19 callsubr
        </CharString>
        <CharString name="Ercyrillic">
          50 440 1443 -65 callgsubr
          endchar
        </CharString>
        <CharString name="Ereversedcyrillic">
          -80 callsubr
          endchar
        </CharString>
        <CharString name="Escyrillic">
          209 1334 992 -97 callgsubr
          endchar
        </CharString>
        <CharString name="Etagreek">
          248 1279 19 callgsubr
        </CharString>
        <CharString name="Etatonosgreek">
          609 1642 hmoveto
          -92 callsubr
          -1209 1105 -19 callsubr
        </CharString>
        <CharString name="Eth">
          212 341 160 rmoveto
          107 503 rlineto
          219 hlineto
          35 163 rlineto
          -219 hlineto
          97 457 rlineto
          239 hlineto
          288 169 -178 -302 -369 -236 -274 -317 hvcurveto
          -293 1283 rmoveto
          -130 -617 rlineto
          -184 hlineto
          -35 -163 rlineto
          184 hlineto
          -140 -663 rlineto
          591 hlineto
          420 326 347 465 392 -227 239 -402 hvcurveto
          endchar
        </CharString>
        <CharString name="Etilde">
          -55 1053 -102 callsubr
          66 57 callsubr
          endchar
        </CharString>
        <CharString name="Etildebelow">
          -55 1053 -102 callsubr
          -361 -439 -103 callgsubr
          endchar
        </CharString>
        <CharString name="Euro">
          54 1446 1434 rmoveto
          15 -60 -126 18 -79 hhcurveto
          -384 -272 -192 -320 -106 hvcurveto
          -161 hlineto
          -29 -136 rlineto
          157 hlineto
          -10 -59 -5 -63 -65 vvcurveto
          -1 0 0 -1 vvcurveto
          -185 hlineto
          -29 -136 rlineto
          229 hlineto
          -308 66 290 -209 368 hhcurveto
          23 10 0 1 8 hvcurveto
          35 164 rlineto
          -9 -11 -1 -11 hhcurveto
          -295 -210 137 216 -65 hvcurveto
          427 hlineto
          29 136 rlineto
          -477 hlineto
          4 0 4 4 vvcurveto
          63 5 59 11 55 vhcurveto
          504 hlineto
          29 136 rlineto
          -493 hlineto
          219 89 193 126 270 hhcurveto
          81 101 -16 -14 55 hvcurveto
          endchar
        </CharString>
        <CharString name="F">
          80 callsubr
          endchar
        </CharString>
        <CharString name="Fdotaccent">
          80 callsubr
          800 1575 -101 callsubr
        </CharString>
        <CharString name="G">
          251 -93 callgsubr
          endchar
        </CharString>
        <CharString name="Gacute">
          254 -93 callgsubr
          -354 1035 rmoveto
          37 callgsubr
        </CharString>
        <CharString name="Gammagreek">
          -124 308 hmoveto
          272 135 callgsubr
          673 -26 callsubr
          -858 -92 callgsubr
          endchar
        </CharString>
        <CharString name="Gbreve">
          254 -93 callgsubr
          -796 1333 rmoveto
          66 callsubr
        </CharString>
        <CharString name="Gcaron">
          254 -93 callgsubr
          -558 1035 -80 callgsubr
          endchar
        </CharString>
        <CharString name="Gcircumflex">
          254 -93 callgsubr
          -313 1333 -71 callsubr
          endchar
        </CharString>
        <CharString name="Gcommaaccent">
          254 -93 callgsubr
          -779 -1058 -37 callsubr
        </CharString>
        <CharString name="Gcommaaccent.mini">
          255 -93 callgsubr
          -765 -972 -20 callgsubr
        </CharString>
        <CharString name="Gdotaccent">
          254 -93 callgsubr
          -441 1035 -101 callsubr
        </CharString>
        <CharString name="Gecyrillic">
          107 callgsubr
          endchar
        </CharString>
        <CharString name="Geupturncyrillic">
          -106 590 1281 rmoveto
          683 hlineto
          95 447 79 callsubr
          -60 -285 rlineto
          -701 -92 callgsubr
          185 hlineto
          endchar
        </CharString>
        <CharString name="Gjecyrillic">
          107 callgsubr
          798 1575 rmoveto
          37 callgsubr
        </CharString>
        <CharString name="Gmacron">
          254 -93 callgsubr
          -92 1216 -96 callsubr
        </CharString>
        <CharString name="H">
          248 1279 19 callgsubr
        </CharString>
        <CharString name="Hardsigncyrillic">
          255 929 hmoveto
          327 223 257 260 251 -191 160 -270 hvcurveto
          -278 hlineto
          110 515 rlineto
          -513 hlineto
          152 callsubr
          330 hlineto
          -273 -1281 rlineto
          622 768 rmoveto
          161 callsubr
          -86 -192 -182 -166 -148 -215 hvcurveto
          -333 hlineto
          130 608 rlineto
          endchar
        </CharString>
        <CharString name="Hbar">
          248 1271 819 rmoveto
          -788 hlineto
          55 256 rlineto
          788 hlineto
          346 143 rmoveto
          -132 hlineto
          48 225 rlineto
          -184 hlineto
          -48 -225 rlineto
          -788 hlineto
          48 225 rlineto
          -184 hlineto
          -48 -225 rlineto
          -137 hlineto
          -30 -143 rlineto
          137 hlineto
          -229 -1075 rlineto
          183 hlineto
          140 657 rlineto
          788 hlineto
          -140 -657 rlineto
          185 hlineto
          229 1075 rlineto
          132 hlineto
          endchar
        </CharString>
        <CharString name="Hbrevebelow">
          248 1279 hmoveto
          -92 callsubr
          -838 -126 27 callgsubr
        </CharString>
        <CharString name="Hcaron">
          248 1279 hmoveto
          -92 callsubr
          -149 1575 -80 callgsubr
          endchar
        </CharString>
        <CharString name="Hcedilla">
          248 1402 1443 rmoveto
          -133 -624 rlineto
          -788 hlineto
          133 624 rlineto
          -184 hlineto
          -307 -1443 rlineto
          28 hlineto
          -89 -143 -13 -90 rlineto
          53 hlineto
          87 47 -26 -46 -43 -40 -27 -64 -45 -67 13 15 -35 hvcurveto
          -23 -108 rlineto
          -22 49 69 -14 57 hhcurveto
          144 103 81 114 90 -61 53 -118 13 hvcurveto
          87 140 rlineto
          14 hlineto
          7 35 3 4 rlineto
          -2 hlineto
          132 618 rlineto
          788 hlineto
          -140 -657 rlineto
          185 hlineto
          307 1443 rlineto
          endchar
        </CharString>
        <CharString name="Hcedilla.mini">
          248 1402 1443 rmoveto
          -133 -624 rlineto
          -788 hlineto
          133 624 rlineto
          -184 hlineto
          -307 -1443 rlineto
          19 hlineto
          -80 -138 -12 -68 rlineto
          66 hlineto
          88 36 -21 -41 -41 -40 -17 -69 -38 -41 5 9 -29 hvcurveto
          -21 -98 rlineto
          -12 30 71 -10 35 hhcurveto
          148 97 63 105 95 -58 50 -122 5 hvcurveto
          72 114 rlineto
          31 hlineto
          140 657 rlineto
          788 hlineto
          -140 -657 rlineto
          185 hlineto
          307 1443 rlineto
          endchar
        </CharString>
        <CharString name="Hcircumflex">
          248 1279 hmoveto
          -92 callsubr
          96 100 callsubr
          endchar
        </CharString>
        <CharString name="Hdieresis">
          248 1279 hmoveto
          -92 callsubr
          -235 32 callsubr
          endchar
        </CharString>
        <CharString name="Hdotaccent">
          248 1279 hmoveto
          -92 callsubr
          -32 1575 -101 callsubr
        </CharString>
        <CharString name="Hdotbelow">
          248 1279 hmoveto
          -92 callsubr
          -454 24 callgsubr
          endchar
        </CharString>
        <CharString name="I">
          -724 -57 callsubr
          endchar
        </CharString>
        <CharString name="I.1">
          -266 1082 1289 rmoveto
          33 154 rlineto
          -272 hlineto
          -184 hlineto
          -272 hlineto
          -33 -154 rlineto
          272 hlineto
          -241 -1135 rlineto
          -272 hlineto
          -33 -154 rlineto
          272 hlineto
          184 hlineto
          272 hlineto
          33 154 rlineto
          -272 hlineto
          241 1135 rlineto
          endchar
        </CharString>
        <CharString name="I.mini">
          -728 303 hmoveto
          279 1313 rlineto
          -180 105 callsubr
          endchar
        </CharString>
        <CharString name="I.mini.1">
          -266 1054 1159 rmoveto
          33 154 rlineto
          -727 hlineto
          -33 -154 rlineto
          274 hlineto
          -214 -1005 rlineto
          -274 hlineto
          -33 -154 rlineto
          274 hlineto
          180 hlineto
          273 hlineto
          33 154 rlineto
          -273 hlineto
          214 1005 rlineto
          endchar
        </CharString>
        <CharString name="IAcyrillic">
          -56 callsubr
          endchar
        </CharString>
        <CharString name="IJ">
          376 -57 callsubr
          521 -68 callgsubr
          endchar
        </CharString>
        <CharString name="IJacute">
          376 -57 callsubr
          521 -68 callgsubr
          18 1238 rmoveto
          -84 callgsubr
          1306 58 callgsubr
        </CharString>
        <CharString name="IUcyrillic">
          816 1319 132 rmoveto
          -225 -176 165 297 407 245 309 320 224 174 -165 -283 -393 -244 -337 -318 hvcurveto
          -828 687 rmoveto
          133 624 rlineto
          -184 hlineto
          -307 -1443 rlineto
          183 hlineto
          140 657 rlineto
          278 hlineto
          -2 -30 -1 -31 -31 vvcurveto
          -382 259 -217 329 443 306 435 490 346 -259 240 -312 -376 -277 -277 -381 -86 vhcurveto
          endchar
        </CharString>
        <CharString name="Iacute">
          -724 -57 callsubr
          541 1575 rmoveto
          37 callgsubr
        </CharString>
        <CharString name="Iacute.1">
          -266 1197 1873 rmoveto
          -226 hlineto
          -373 -298 rlineto
          204 hlineto
          -143 -132 rmoveto
          -272 hlineto
          -33 -154 rlineto
          272 hlineto
          -241 -1135 rlineto
          -272 hlineto
          -33 -154 rlineto
          272 hlineto
          184 hlineto
          272 hlineto
          33 154 rlineto
          -272 hlineto
          241 1135 rlineto
          272 hlineto
          33 154 rlineto
          -272 hlineto
          endchar
        </CharString>
        <CharString name="Ibreve">
          -724 -57 callsubr
          99 1873 rmoveto
          66 callsubr
        </CharString>
        <CharString name="Ibreve.1">
          -266 996 1873 rmoveto
          -105 -27 -81 -64 -112 hhcurveto
          -110 -86 66 90 hvcurveto
          2 0 4 7 vvcurveto
          -150 hlineto
          -4 0 -3 -3 vvcurveto
          -171 139 -117 203 192 151 114 184 35 vhcurveto
          -491 -430 rmoveto
          -272 hlineto
          -33 -154 rlineto
          272 hlineto
          -241 -1135 rlineto
          -272 hlineto
          -33 -154 rlineto
          272 hlineto
          184 hlineto
          272 hlineto
          33 154 rlineto
          -272 hlineto
          241 1135 rlineto
          272 hlineto
          33 154 rlineto
          -272 hlineto
          endchar
        </CharString>
        <CharString name="Icaron">
          -724 -57 callsubr
          337 1575 -80 callgsubr
          endchar
        </CharString>
        <CharString name="Icaron.1">
          -266 852 1575 rmoveto
          310 298 rlineto
          -207 hlineto
          -183 -186 rlineto
          -16 hlineto
          -105 186 rlineto
          -185 hlineto
          184 -298 rlineto
          9 -132 rmoveto
          -272 hlineto
          -33 -154 rlineto
          272 hlineto
          -241 -1135 rlineto
          -272 hlineto
          -33 -154 rlineto
          272 hlineto
          184 hlineto
          272 hlineto
          33 154 rlineto
          -272 hlineto
          241 1135 rlineto
          272 hlineto
          33 154 rlineto
          -272 hlineto
          endchar
        </CharString>
        <CharString name="Icircumflex">
          -724 -57 callsubr
          582 100 callsubr
          endchar
        </CharString>
        <CharString name="Icircumflex.1">
          -266 771 1761 rmoveto
          16 hlineto
          105 -186 rlineto
          185 hlineto
          -184 298 rlineto
          -202 hlineto
          -310 -298 rlineto
          207 hlineto
          494 -286 rmoveto
          33 154 rlineto
          -272 hlineto
          -184 hlineto
          -272 hlineto
          -33 -154 rlineto
          272 hlineto
          -241 -1135 rlineto
          -272 hlineto
          -33 -154 rlineto
          272 hlineto
          184 hlineto
          272 hlineto
          33 154 rlineto
          -272 hlineto
          241 1135 rlineto
          endchar
        </CharString>
        <CharString name="Icyrillic">
          119 callsubr
        </CharString>
        <CharString name="Icyrillic.1">
          -246 1092 1289 rmoveto
          33 154 rlineto
          -272 hlineto
          -184 hlineto
          -272 hlineto
          -33 -154 rlineto
          272 hlineto
          -241 -1135 rlineto
          -272 hlineto
          -33 -154 rlineto
          272 hlineto
          184 hlineto
          272 hlineto
          33 154 rlineto
          -272 hlineto
          241 1135 rlineto
          endchar
        </CharString>
        <CharString name="Idblgrave">
          -724 -57 callsubr
          129 1575 -23 callsubr
          endchar
        </CharString>
        <CharString name="Idblgrave.1">
          -266 1038 1575 rmoveto
          -184 298 rlineto
          -226 hlineto
          206 -298 rlineto
          -210 0 rmoveto
          -184 298 rlineto
          -226 hlineto
          206 -298 rlineto
          662 -286 rmoveto
          33 154 rlineto
          -272 hlineto
          -184 hlineto
          -272 hlineto
          -33 -154 rlineto
          272 hlineto
          -241 -1135 rlineto
          -272 hlineto
          -33 -154 rlineto
          272 hlineto
          184 hlineto
          272 hlineto
          33 154 rlineto
          -272 hlineto
          241 1135 rlineto
          endchar
        </CharString>
        <CharString name="Idieresis">
          40 callsubr
        </CharString>
        <CharString name="Idieresis.1">
          -266 968 1575 rmoveto
          67 54 54 67 67 -54 54 -67 -67 -54 -54 -67 -67 54 -54 67 hvcurveto
          -404 0 rmoveto
          67 54 54 67 67 -54 54 -67 -67 -54 -54 -67 -67 54 -54 67 hvcurveto
          518 -286 rmoveto
          33 154 rlineto
          -272 hlineto
          -184 hlineto
          -272 hlineto
          -33 -154 rlineto
          272 hlineto
          -241 -1135 rlineto
          -272 hlineto
          -33 -154 rlineto
          272 hlineto
          184 hlineto
          272 hlineto
          33 154 rlineto
          -272 hlineto
          241 1135 rlineto
          endchar
        </CharString>
        <CharString name="Idieresisacute">
          -724 -57 callsubr
          365 1873 55 callsubr
          endchar
        </CharString>
        <CharString name="Idieresisacute.1">
          -266 1181 2095 rmoveto
          -227 hlineto
          -277 -222 rlineto
          176 hlineto
          -7 -177 rmoveto
          -67 54 -54 67 67 54 54 67 67 -54 54 -67 -67 -54 -54 -67 vhcurveto
          -283 -121 rmoveto
          67 54 54 67 67 -54 54 -67 -67 -54 -54 -67 -67 54 -54 67 hvcurveto
          96 -132 rmoveto
          -272 hlineto
          -33 -154 rlineto
          272 hlineto
          -241 -1135 rlineto
          -272 hlineto
          -33 -154 rlineto
          272 hlineto
          184 hlineto
          272 hlineto
          33 154 rlineto
          -272 hlineto
          241 1135 rlineto
          272 hlineto
          33 154 rlineto
          -272 hlineto
          endchar
        </CharString>
        <CharString name="Idieresisacute.mini">
          -728 303 hmoveto
          279 1313 rlineto
          -180 105 callsubr
          334 1743 55 callsubr
          endchar
        </CharString>
        <CharString name="Idieresisacute.mini.1">
          -266 1170 1965 rmoveto
          -227 hlineto
          -277 -222 rlineto
          176 hlineto
          -7 -177 rmoveto
          -67 54 -54 67 67 54 54 67 67 -54 54 -67 -67 -54 -54 -67 vhcurveto
          -283 -121 rmoveto
          67 54 54 67 67 -54 54 -67 -67 -54 -54 -67 -67 54 -54 67 hvcurveto
          -225 -286 rmoveto
          274 hlineto
          -214 -1005 rlineto
          -274 hlineto
          -33 -154 rlineto
          274 hlineto
          180 hlineto
          273 hlineto
          33 154 rlineto
          -273 hlineto
          214 1005 rlineto
          273 hlineto
          33 154 rlineto
          -727 hlineto
          endchar
        </CharString>
        <CharString name="Idotaccent">
          -724 -57 callsubr
          453 1575 -101 callsubr
        </CharString>
        <CharString name="Idotaccent.1">
          -266 785 1575 rmoveto
          67 54 54 67 67 -54 54 -67 -67 -54 -54 -67 -67 54 -54 67 hvcurveto
          297 -286 rmoveto
          33 154 rlineto
          -272 hlineto
          -184 hlineto
          -272 hlineto
          -33 -154 rlineto
          272 hlineto
          -241 -1135 rlineto
          -272 hlineto
          -33 -154 rlineto
          272 hlineto
          184 hlineto
          272 hlineto
          33 154 rlineto
          -272 hlineto
          241 1135 rlineto
          endchar
        </CharString>
        <CharString name="Idotbelow">
          -724 -57 callsubr
          31 24 callgsubr
          endchar
        </CharString>
        <CharString name="Idotbelow.1">
          -266 364 -160 rmoveto
          -67 -54 -54 -67 -67 54 -54 67 67 54 54 67 67 -54 54 -67 hvcurveto
          718 1449 rmoveto
          33 154 rlineto
          -272 hlineto
          -184 hlineto
          -272 hlineto
          -33 -154 rlineto
          272 hlineto
          -241 -1135 rlineto
          -272 hlineto
          -33 -154 rlineto
          272 hlineto
          184 hlineto
          272 hlineto
          33 154 rlineto
          -272 hlineto
          241 1135 rlineto
          endchar
        </CharString>
        <CharString name="Iecyrillic">
          -35 1063 -102 callsubr
          endchar
        </CharString>
        <CharString name="Igrave">
          -724 -57 callsubr
          325 136 callgsubr
          endchar
        </CharString>
        <CharString name="Igrave.1">
          -266 860 1575 rmoveto
          -184 298 rlineto
          -206 hlineto
          206 -298 rlineto
          406 -286 rmoveto
          33 154 rlineto
          -272 hlineto
          -184 hlineto
          -272 hlineto
          -33 -154 rlineto
          272 hlineto
          -241 -1135 rlineto
          -272 hlineto
          -33 -154 rlineto
          272 hlineto
          184 hlineto
          272 hlineto
          33 154 rlineto
          -272 hlineto
          241 1135 rlineto
          endchar
        </CharString>
        <CharString name="Ihookabove">
          -724 -57 callsubr
          321 1791 -59 callsubr
          endchar
        </CharString>
        <CharString name="Ihookabove.1">
          -266 734 1520 rmoveto
          132 33 95 97 103 vvcurveto
          101 -89 64 -139 -35 -39 -5 -8 -22 vhcurveto
          -25 -117 rlineto
          6 23 35 3 36 hhcurveto
          68 36 -21 -39 -51 -48 -41 -80 -18 hvcurveto
          400 -338 rmoveto
          33 154 rlineto
          -272 hlineto
          -184 hlineto
          -272 hlineto
          -33 -154 rlineto
          272 hlineto
          -241 -1135 rlineto
          -272 hlineto
          -33 -154 rlineto
          272 hlineto
          184 hlineto
          272 hlineto
          33 154 rlineto
          -272 hlineto
          241 1135 rlineto
          endchar
        </CharString>
        <CharString name="Iicyrillic">
          264 1103 hmoveto
          -54 callgsubr
          endchar
        </CharString>
        <CharString name="Iinvertedbreve">
          -724 -57 callsubr
          819 1575 -53 callgsubr
          endchar
        </CharString>
        <CharString name="Iinvertedbreve.1">
          -266 1100 1575 rmoveto
          4 0 3 3 vvcurveto
          171 -139 117 -203 -192 -151 -114 -184 -35 vhcurveto
          154 hlineto
          105 27 81 64 112 hhcurveto
          110 86 -66 -90 hvcurveto
          -2 0 -4 -7 vvcurveto
          132 -286 rmoveto
          33 154 rlineto
          -272 hlineto
          -184 hlineto
          -272 hlineto
          -33 -154 rlineto
          272 hlineto
          -241 -1135 rlineto
          -272 hlineto
          -33 -154 rlineto
          272 hlineto
          184 hlineto
          272 hlineto
          33 154 rlineto
          -272 hlineto
          241 1135 rlineto
          endchar
        </CharString>
        <CharString name="Iishortcyrillic">
          264 1103 hmoveto
          -54 callgsubr
          -594 742 -74 callsubr
        </CharString>
        <CharString name="Imacron">
          -724 -57 callsubr
          803 1756 -96 callsubr
        </CharString>
        <CharString name="Imacron.1">
          -266 1114 1756 rmoveto
          -674 hlineto
          -29 -136 rlineto
          674 hlineto
          -3 -331 rmoveto
          33 154 rlineto
          -272 hlineto
          -184 hlineto
          -272 hlineto
          -33 -154 rlineto
          272 hlineto
          -241 -1135 rlineto
          -272 hlineto
          -33 -154 rlineto
          272 hlineto
          184 hlineto
          272 hlineto
          33 154 rlineto
          -272 hlineto
          241 1135 rlineto
          endchar
        </CharString>
        <CharString name="Iocyrillic">
          -35 1063 -102 callsubr
          -290 32 callsubr
          endchar
        </CharString>
        <CharString name="Iogonek">
          -724 159 -432 rmoveto
          26 27 4 6 20 hvcurveto
          -27 callgsubr
          -79 -48 36 55 80 63 145 callsubr
          11 3 309 1452 -91 callgsubr
          0 vlineto
          -130 -40 -74 -102 -96 vvcurveto
          -112 99 -82 141 vhcurveto
          endchar
        </CharString>
        <CharString name="Iogonek.1">
          -266 354 1289 rmoveto
          272 hlineto
          -241 -1135 rlineto
          -272 155 callsubr
          472 hlineto
          -3 -16 rlineto
          -112 -45 -69 -83 10 callgsubr
          83 145 callsubr
          45 14 33 154 rlineto
          -272 hlineto
          241 1135 rlineto
          272 -10 callsubr
          endchar
        </CharString>
        <CharString name="Iogonek.mini">
          -724 123 hmoveto
          -130 -40 -74 -102 10 callgsubr
          63 145 callsubr
          11 3 309 1452 rlineto
          -184 hlineto
          endchar
        </CharString>
        <CharString name="Iogonek.mini.1">
          -266 1082 1289 rmoveto
          33 154 rlineto
          -272 hlineto
          -184 hlineto
          -272 hlineto
          -33 -154 rlineto
          272 hlineto
          -241 -1135 rlineto
          -272 hlineto
          -33 -154 rlineto
          272 hlineto
          168 hlineto
          -3 -16 rlineto
          -112 -45 -69 -81 -96 vvcurveto
          -112 99 -82 141 26 27 4 6 20 vhcurveto
          29 134 rlineto
          -2 -10 -12 -1 -16 hhcurveto
          -79 -48 36 55 80 82 70 136 39 hvcurveto
          38 11 rlineto
          39 hlineto
          33 154 rlineto
          -272 hlineto
          241 1135 rlineto
          endchar
        </CharString>
        <CharString name="Iotadieresisgreek">
          -726 -57 callsubr
          251 32 callsubr
          endchar
        </CharString>
        <CharString name="Iotadieresisgreek.1">
          -266 968 1575 rmoveto
          67 54 54 67 67 -54 54 -67 -67 -54 -54 -67 -67 54 -54 67 hvcurveto
          -404 0 rmoveto
          67 54 54 67 67 -54 54 -67 -67 -54 -54 -67 -67 54 -54 67 hvcurveto
          518 -286 rmoveto
          33 154 rlineto
          -272 hlineto
          -184 hlineto
          -272 hlineto
          -33 -154 rlineto
          272 hlineto
          -241 -1135 rlineto
          -272 hlineto
          -33 -154 rlineto
          272 hlineto
          184 hlineto
          272 hlineto
          33 154 rlineto
          -272 hlineto
          241 1135 rlineto
          endchar
        </CharString>
        <CharString name="Iotagreek">
          -724 -57 callsubr
          endchar
        </CharString>
        <CharString name="Iotagreek.1">
          -266 1082 1289 rmoveto
          33 154 rlineto
          -272 hlineto
          -184 hlineto
          -272 hlineto
          -33 -154 rlineto
          272 hlineto
          -241 -1135 rlineto
          -272 hlineto
          -33 -154 rlineto
          272 hlineto
          184 hlineto
          272 hlineto
          33 154 rlineto
          -272 hlineto
          241 1135 rlineto
          endchar
        </CharString>
        <CharString name="Iotatonosgreek">
          -363 670 -46 callgsubr
          -238 1105 -19 callsubr
        </CharString>
        <CharString name="Iotatonosgreek.1">
          88 408 1443 rmoveto
          -160 -338 rlineto
          159 hlineto
          207 338 rlineto
          822 -154 rmoveto
          33 154 rlineto
          -272 hlineto
          -184 hlineto
          -272 hlineto
          -33 -154 rlineto
          272 hlineto
          -241 -1135 rlineto
          -272 hlineto
          -33 -154 rlineto
          272 hlineto
          184 hlineto
          272 hlineto
          33 154 rlineto
          -272 hlineto
          241 1135 rlineto
          endchar
        </CharString>
        <CharString name="Itilde">
          -724 -57 callsubr
          607 57 callsubr
          endchar
        </CharString>
        <CharString name="Itilde.1">
          -266 1062 1844 rmoveto
          -96 -18 -37 -43 -60 hhcurveto
          -98 -25 184 -175 hhcurveto
          -134 -108 -96 -178 -21 hvcurveto
          142 hlineto
          96 18 36 43 60 hhcurveto
          97 25 -184 177 hhcurveto
          134 108 96 178 21 hvcurveto
          -545 -401 rmoveto
          -272 hlineto
          -33 -154 rlineto
          272 hlineto
          -241 -1135 rlineto
          -272 hlineto
          -33 -154 rlineto
          272 hlineto
          184 hlineto
          272 hlineto
          33 154 rlineto
          -272 hlineto
          241 1135 rlineto
          272 hlineto
          33 154 rlineto
          -272 hlineto
          endchar
        </CharString>
        <CharString name="Itildebelow">
          -724 -57 callsubr
          178 -439 -103 callgsubr
          endchar
        </CharString>
        <CharString name="Itildebelow.1">
          -266 77 -394 rmoveto
          96 18 36 43 60 hhcurveto
          97 25 -184 177 hhcurveto
          134 108 96 178 21 hvcurveto
          -142 hlineto
          -96 -18 -37 -43 -60 hhcurveto
          -98 -25 184 -175 hhcurveto
          -134 -108 -96 -178 -21 hvcurveto
          1147 1683 rmoveto
          33 154 rlineto
          -272 hlineto
          -184 hlineto
          -272 hlineto
          -33 -154 rlineto
          272 hlineto
          -241 -1135 rlineto
          -272 hlineto
          -33 -154 rlineto
          272 hlineto
          184 hlineto
          272 hlineto
          33 154 rlineto
          -272 hlineto
          241 1135 rlineto
          endchar
        </CharString>
        <CharString name="J">
          -172 96 -68 callgsubr
          endchar
        </CharString>
        <CharString name="Jcircumflex">
          -172 96 -68 callgsubr
          1161 1536 -71 callsubr
          endchar
        </CharString>
        <CharString name="Jecyrillic">
          -172 96 -68 callgsubr
          endchar
        </CharString>
        <CharString name="K">
          75 303 -68 callsubr
          endchar
        </CharString>
        <CharString name="Kacute">
          75 303 -68 callsubr
          907 1575 rmoveto
          37 callgsubr
        </CharString>
        <CharString name="Kacyrillic">
          77 1497 1443 rmoveto
          -235 hlineto
          -731 -634 rlineto
          -42 hlineto
          135 634 rlineto
          -184 hlineto
          -307 -1443 rlineto
          184 hlineto
          141 665 rlineto
          42 hlineto
          511 -665 rlineto
          210 hlineto
          -560 731 rlineto
          endchar
        </CharString>
        <CharString name="Kappagreek">
          75 303 -68 callsubr
          endchar
        </CharString>
        <CharString name="Kcaron">
          75 303 -68 callsubr
          703 1575 -80 callgsubr
          endchar
        </CharString>
        <CharString name="Kcommaaccent">
          75 303 -68 callsubr
          398 -518 -37 callsubr
        </CharString>
        <CharString name="Kcommaaccent.mini">
          75 303 -68 callsubr
          412 -432 -20 callgsubr
        </CharString>
        <CharString name="Kdotbelow">
          75 303 -68 callsubr
          459 24 callgsubr
          endchar
        </CharString>
        <CharString name="Kjecyrillic">
          77 1396 1873 rmoveto
          -226 hlineto
          -373 -298 rlineto
          204 hlineto
          496 -132 rmoveto
          -235 hlineto
          -731 -634 rlineto
          -42 hlineto
          135 634 rlineto
          -184 hlineto
          -307 -1443 rlineto
          184 hlineto
          141 665 rlineto
          42 hlineto
          511 -665 rlineto
          210 hlineto
          -560 731 rlineto
          endchar
        </CharString>
        <CharString name="Klinebelow">
          75 303 -68 callsubr
          811 -212 -96 callsubr
        </CharString>
        <CharString name="L">
          -110 1035 162 113 callgsubr
        </CharString>
        <CharString name="Lacute">
          -110 1035 162 -33 callgsubr
          -338 1575 rmoveto
          37 callgsubr
        </CharString>
        <CharString name="Lambdagreek">
          94 878 1207 rmoveto
          16 hlineto
          153 -1207 rlineto
          176 hlineto
          -206 1443 79 callsubr
          -825 -12 callgsubr
          193 hlineto
          endchar
        </CharString>
        <CharString name="Lcaron">
          -110 813 1443 92 callsubr
          52 -1281 113 callgsubr
        </CharString>
        <CharString name="Lcircumflexbelow">
          -110 1035 162 -33 callgsubr
          -387 -142 -59 callgsubr
          endchar
        </CharString>
        <CharString name="Lcommaaccent">
          -110 1035 162 -33 callgsubr
          -560 -518 -37 callsubr
        </CharString>
        <CharString name="Lcommaaccent.mini">
          -110 1035 162 -33 callgsubr
          -546 -432 -20 callgsubr
        </CharString>
        <CharString name="Ldotbelow">
          -110 1035 162 -33 callgsubr
          -499 24 callgsubr
          endchar
        </CharString>
        <CharString name="Ldotbelowmacron">
          -110 1035 162 -33 callgsubr
          -499 24 callgsubr
          423 2158 -96 callsubr
        </CharString>
        <CharString name="Ljecyrillic">
          883 536 540 rmoveto
          203 741 rlineto
          521 hlineto
          -273 -1281 rlineto
          570 hlineto
          327 223 257 260 251 -191 160 -270 hvcurveto
          -278 hlineto
          110 515 rlineto
          -871 hlineto
          -243 -896 rlineto
          -226 -61 -74 -165 -162 hhcurveto
          -16 -26 3 3 -11 hvcurveto
          -34 -161 rlineto
          -6 16 25 -4 27 hhcurveto
          278 116 206 343 94 hvcurveto
          1073 228 rmoveto
          161 callsubr
          -86 -192 -182 -166 -148 -215 hvcurveto
          -333 hlineto
          130 608 rlineto
          endchar
        </CharString>
        <CharString name="Llinebelow">
          -110 1035 162 -33 callgsubr
          -147 -212 -96 callsubr
        </CharString>
        <CharString name="Lslash">
          -110 341 162 rmoveto
          136 640 318 132 30 143 -317 -132 106 498 rlineto
          -184 hlineto
          -124 -582 -181 -75 -30 -143 181 75 -153 -718 rlineto
          878 hlineto
          34 162 rlineto
          endchar
        </CharString>
        <CharString name="M">
          518 295 41 callgsubr
        </CharString>
        <CharString name="Macute">
          518 295 -66 callsubr
          1160 1575 rmoveto
          37 callgsubr
        </CharString>
        <CharString name="Mdotaccent">
          518 295 -66 callsubr
          1073 1575 -101 callsubr
        </CharString>
        <CharString name="Mdotbelow">
          518 295 -66 callsubr
          652 24 callgsubr
          endchar
        </CharString>
        <CharString name="Mugreek">
          518 295 41 callgsubr
        </CharString>
        <CharString name="N">
          246 -88 callgsubr
          endchar
        </CharString>
        <CharString name="Nacute">
          246 -88 callgsubr
          1035 1575 rmoveto
          37 callgsubr
        </CharString>
        <CharString name="Ncaron">
          246 -88 callgsubr
          831 1575 -80 callgsubr
          endchar
        </CharString>
        <CharString name="Ncircumflexbelow">
          246 -88 callgsubr
          629 -142 -59 callgsubr
          endchar
        </CharString>
        <CharString name="Ncommaaccent">
          246 -88 callgsubr
          456 -518 -37 callsubr
        </CharString>
        <CharString name="Ncommaaccent.mini">
          246 -88 callgsubr
          470 -432 -20 callgsubr
        </CharString>
        <CharString name="Ndotaccent">
          246 -88 callgsubr
          948 1575 -101 callsubr
        </CharString>
        <CharString name="Ndotbelow">
          246 -88 callgsubr
          517 24 callgsubr
          endchar
        </CharString>
        <CharString name="Ngrave">
          246 -88 callgsubr
          819 136 callgsubr
          endchar
        </CharString>
        <CharString name="Njecyrillic">
          903 1025 hmoveto
          570 hlineto
          320 200 227 230 220 -179 141 -252 hvcurveto
          -301 hlineto
          133 625 rlineto
          -184 hlineto
          -133 -624 rlineto
          -708 hlineto
          133 624 -91 callgsubr
          183 hlineto
          140 657 rlineto
          709 hlineto
          78 -497 rmoveto
          106 498 rlineto
          298 hlineto
          165 115 -71 -151 -155 -131 -121 -220 hvcurveto
          endchar
        </CharString>
        <CharString name="Nlinebelow">
          246 -88 callgsubr
          869 -212 -96 callsubr
        </CharString>
        <CharString name="Ntilde">
          246 -88 callgsubr
          1101 57 callsubr
          endchar
        </CharString>
        <CharString name="Nugreek">
          246 -88 callgsubr
          endchar
        </CharString>
        <CharString name="NumberSignCyrillic">
          953 302 hmoveto
          244 1150 -18 callgsubr
          503 -1150 rlineto
          182 -25 callsubr
          -179 hlineto
          -245 -1153 rlineto
          -16 hlineto
          -504 1153 rlineto
          -180 -92 callgsubr
          2043 499 rmoveto
          31 147 rlineto
          -650 hlineto
          -31 -147 rlineto
          641 642 rmoveto
          -141 -88 -100 -123 -100 -65 73 111 142 85 99 122 102 67 -73 -111 vhcurveto
          165 5 rmoveto
          189 -132 127 -195 -221 -159 -161 -222 -190 129 -126 195 223 160 160 223 vhcurveto
          endchar
        </CharString>
        <CharString name="O">
          305 968 1310 -105 callgsubr
          endchar
        </CharString>
        <CharString name="O.mini">
          -95 callgsubr
          endchar
        </CharString>
        <CharString name="OE">
          1051 1221 hmoveto
          896 hlineto
          34 162 rlineto
          -712 hlineto
          106 496 rlineto
          674 hlineto
          34 160 rlineto
          -675 hlineto
          100 463 rlineto
          711 -26 callsubr
          -896 hlineto
          -52 -245 -17 -1 rlineto
          159 -81 -172 121 -224 hhcurveto
          133 callsubr
          191 152 71 102 105 hvcurveto
          16 1 rlineto
          123 724 rmoveto
          -423 -242 -308 -331 111 callsubr
          vhcurveto
          endchar
        </CharString>
        <CharString name="Oacute">
          305 968 1310 -105 callgsubr
          332 1607 rmoveto
          37 callgsubr
        </CharString>
        <CharString name="Obreve">
          305 968 1310 -105 callgsubr
          -110 1905 rmoveto
          66 callsubr
        </CharString>
        <CharString name="Ocaron">
          305 968 1310 -105 callgsubr
          128 1607 -80 callgsubr
          endchar
        </CharString>
        <CharString name="Ocircumflex">
          305 968 1310 -105 callgsubr
          373 1905 -71 callsubr
          endchar
        </CharString>
        <CharString name="Ocircumflexacute">
          305 968 1310 -105 callgsubr
          156 1840 rmoveto
          -89 callsubr
          -244 233 rlineto
          10 45 113 callsubr
          242 129 callsubr
          endchar
        </CharString>
        <CharString name="Ocircumflexacute.mini">
          -95 callgsubr
          -247 945 rmoveto
          -202 hlineto
          -89 callsubr
          -234 278 113 callsubr
          227 129 callsubr
          endchar
        </CharString>
        <CharString name="Ocircumflexdotbelow">
          305 968 1310 -105 callgsubr
          373 1905 -71 callsubr
          -614 -1975 -101 callsubr
        </CharString>
        <CharString name="Ocircumflexgrave">
          305 968 1310 -105 callgsubr
          156 1840 rmoveto
          -89 callsubr
          -244 233 rlineto
          280 45 rmoveto
          -169 242 129 callsubr
          195 -242 rlineto
          endchar
        </CharString>
        <CharString name="Ocircumflexgrave.mini">
          -95 callgsubr
          -247 945 rmoveto
          -202 hlineto
          -89 callsubr
          36 278 rmoveto
          -169 227 129 callsubr
          195 -227 rlineto
          endchar
        </CharString>
        <CharString name="Ocircumflexhookabove">
          305 968 1310 -105 callgsubr
          156 1840 rmoveto
          -89 callsubr
          -244 233 rlineto
          56 143 rmoveto
          6 22 34 3 38 hhcurveto
          68 36 -27 -39 -44 -39 -39 -68 -24 hvcurveto
          78 -90 rlineto
          103 39 77 94 86 vvcurveto
          99 -89 66 -139 -36 -39 -5 -8 -21 vhcurveto
          endchar
        </CharString>
        <CharString name="Ocircumflexhookabove.mini">
          -95 callgsubr
          -247 945 rmoveto
          -202 hlineto
          -89 callsubr
          -188 381 57 callgsubr
          -42 -70 -19 hvcurveto
          84 -84 rlineto
          114 38 66 84 93 61 callsubr
          endchar
        </CharString>
        <CharString name="Ocircumflextilde">
          305 968 1310 -105 callgsubr
          376 1886 -94 callgsubr
          -220 -46 rmoveto
          -89 callsubr
          -244 233 rlineto
          endchar
        </CharString>
        <CharString name="Ocircumflextilde.mini">
          -95 callgsubr
          -247 945 rmoveto
          -202 hlineto
          -89 callsubr
          -176 279 -34 callgsubr
        </CharString>
        <CharString name="Ocyrillic">
          325 978 1310 -105 callgsubr
          endchar
        </CharString>
        <CharString name="Odblgrave">
          305 968 1310 -105 callgsubr
          -80 1607 -23 callsubr
          endchar
        </CharString>
        <CharString name="Odieresis">
          305 968 1310 -105 callgsubr
          42 1607 rmoveto
          -107 callsubr
          404 hmoveto
          -107 callsubr
          endchar
        </CharString>
        <CharString name="Odieresismacron">
          305 968 1310 -105 callgsubr
          45 1841 -33 callsubr
        </CharString>
        <CharString name="Odieresismacron.mini">
          -95 callgsubr
          -648 1069 72 callsubr
          57 -487 rmoveto
          -107 callsubr
          404 hmoveto
          -107 callsubr
          endchar
        </CharString>
        <CharString name="Odotaccent">
          305 968 1310 -105 callgsubr
          245 1607 -101 callsubr
        </CharString>
        <CharString name="Odotaccentmacron">
          305 968 1310 -105 callgsubr
          244 1609 -13 callsubr
          415 485 59 callsubr
          endchar
        </CharString>
        <CharString name="Odotaccentmacron.mini">
          -95 callgsubr
          -361 714 -13 callsubr
          387 355 -22 callgsubr
          endchar
        </CharString>
        <CharString name="Odotbelow">
          305 968 1310 -105 callgsubr
          -57 -368 -101 callsubr
        </CharString>
        <CharString name="Ograve">
          305 968 1310 -105 callgsubr
          116 1607 -11 callsubr
          endchar
        </CharString>
        <CharString name="Ohookabove">
          305 968 1310 -105 callgsubr
          112 1823 -59 callsubr
          endchar
        </CharString>
        <CharString name="Ohorn">
          -85 callsubr
          endchar
        </CharString>
        <CharString name="Ohornacute">
          -85 callsubr
          -445 693 rmoveto
          37 callgsubr
        </CharString>
        <CharString name="Ohorndotbelow">
          -85 callsubr
          -834 -1282 -101 callsubr
        </CharString>
        <CharString name="Ohorngrave">
          -85 callsubr
          -661 693 -11 callsubr
          endchar
        </CharString>
        <CharString name="Ohornhookabove">
          -85 callsubr
          -665 909 -59 callsubr
          endchar
        </CharString>
        <CharString name="Ohorntilde">
          -85 callsubr
          -379 688 -103 callgsubr
          endchar
        </CharString>
        <CharString name="Ohungarumlaut">
          305 968 1310 -105 callgsubr
          520 1607 23 callsubr
        </CharString>
        <CharString name="Oinvertedbreve">
          305 968 1310 -105 callgsubr
          610 1607 -53 callgsubr
          endchar
        </CharString>
        <CharString name="Omacron">
          305 968 1310 -105 callgsubr
          594 1788 -96 callsubr
        </CharString>
        <CharString name="Omacronacute">
          305 968 1310 -105 callgsubr
          565 1652 -22 callgsubr
          285 253 160 callsubr
          293 222 98 callsubr
          endchar
        </CharString>
        <CharString name="Omacronacute.mini">
          -95 callgsubr
          -40 757 -22 callgsubr
          285 253 160 callsubr
          293 207 98 callsubr
          endchar
        </CharString>
        <CharString name="Omacrongrave">
          305 968 1310 -105 callgsubr
          566 1652 -22 callgsubr
          497 253 rmoveto
          -173 222 98 callsubr
          199 -222 rlineto
          endchar
        </CharString>
        <CharString name="Omacrongrave.mini">
          -95 callgsubr
          -40 757 -22 callgsubr
          497 253 rmoveto
          -173 207 98 callsubr
          199 -207 rlineto
          endchar
        </CharString>
        <CharString name="Omegagreek">
          335 907 12 callsubr
          endchar
        </CharString>
        <CharString name="Omegatonosgreek">
          622 1194 12 callsubr
          -990 901 -19 callsubr
        </CharString>
        <CharString name="Omicrongreek">
          305 968 1310 -105 callgsubr
          endchar
        </CharString>
        <CharString name="Omicrontonosgreek">
          567 1231 1310 -105 callgsubr
          -802 1139 -19 callsubr
        </CharString>
        <CharString name="Oogonek">
          305 1022 -422 rmoveto
          -16 callsubr
          23 27 4 6 23 vhcurveto
          352 1286 rmoveto
          -423 -242 -308 -331 -245 -165 180 266 416 248 315 329 242 164 -181 -265 vhcurveto
          endchar
        </CharString>
        <CharString name="Oogonek.mini">
          305 949 -432 rmoveto
          23 27 4 6 23 hvcurveto
          -16 callsubr
          vhcurveto
          425 1296 rmoveto
          -423 -242 -308 -331 -245 -165 180 266 416 248 315 329 242 164 -181 -265 vhcurveto
          endchar
        </CharString>
        <CharString name="Oogonekmacron">
          305 1022 -422 rmoveto
          -16 callsubr
          23 27 4 6 23 vhcurveto
          352 1286 rmoveto
          -423 -242 -308 -331 -245 -165 180 266 416 248 315 329 242 164 -181 -265 vhcurveto
          7 890 -96 callsubr
        </CharString>
        <CharString name="Oslash">
          277 1286 1158 rmoveto
          56 -76 32 -101 -117 vvcurveto
          -423 -242 -308 -331 -95 -82 27 48 -66 vhcurveto
          -88 91 rmoveto
          -51 74 -28 96 110 vvcurveto
          416 248 315 329 89 78 -24 -44 63 vhcurveto
          288 177 rmoveto
          -98 69 -81 -104 rlineto
          59 -91 -111 34 -123 hhcurveto
          -449 -332 -389 -525 -165 57 -144 97 -105 hvcurveto
          -93 -120 100 -76 87 114 rlineto
          -64 94 116 -37 128 hhcurveto
          449 328 385 529 172 -61 149 -103 106 hvcurveto
          endchar
        </CharString>
        <CharString name="Oslashacute">
          277 1514 1871 rmoveto
          -226 hlineto
          -373 -298 rlineto
          204 hlineto
          167 -415 rmoveto
          56 -76 32 -101 -117 vvcurveto
          -423 -242 -308 -331 -95 -82 27 48 -66 vhcurveto
          -88 91 rmoveto
          -51 74 -28 96 110 vvcurveto
          416 248 315 329 89 78 -24 -44 63 vhcurveto
          288 177 rmoveto
          -98 69 -81 -104 rlineto
          59 -91 -111 34 -123 hhcurveto
          -449 -332 -389 -525 -165 57 -144 97 -105 hvcurveto
          -93 -120 100 -76 87 114 rlineto
          -64 94 116 -37 128 hhcurveto
          449 328 385 529 172 -61 149 -103 106 hvcurveto
          endchar
        </CharString>
        <CharString name="Otilde">
          305 968 1310 -105 callgsubr
          398 1602 -103 callgsubr
          endchar
        </CharString>
        <CharString name="Otildeacute">
          305 968 1310 -105 callgsubr
          188 1905 rmoveto
          190 hlineto
          295 222 98 callsubr
          -79 -521 -94 callgsubr
          endchar
        </CharString>
        <CharString name="Otildeacute.mini">
          -95 callgsubr
          -417 1010 rmoveto
          190 hlineto
          285 207 98 callsubr
          -69 -506 -94 callgsubr
          endchar
        </CharString>
        <CharString name="Otildedieresis">
          305 968 1310 -105 callgsubr
          376 1606 -94 callgsubr
          -270 521 rmoveto
          69 callsubr
          404 hmoveto
          69 callsubr
          endchar
        </CharString>
        <CharString name="Otildedieresis.mini">
          -95 callgsubr
          -502 1011 rmoveto
          70 callgsubr
          404 hmoveto
          70 callgsubr
          -131 -300 -94 callgsubr
          endchar
        </CharString>
        <CharString name="Otildemacron">
          305 968 1310 -105 callgsubr
          659 2094 59 callsubr
          -255 -358 -94 callgsubr
          endchar
        </CharString>
        <CharString name="Otildemacron.mini">
          -95 callgsubr
          26 1069 -22 callgsubr
          419 -358 -94 callgsubr
          endchar
        </CharString>
        <CharString name="P">
          30 430 1443 -65 callgsubr
          endchar
        </CharString>
        <CharString name="Pacute">
          27 430 1443 -65 callgsubr
          516 900 rmoveto
          37 callgsubr
        </CharString>
        <CharString name="Pdotaccent">
          27 430 1443 -65 callgsubr
          429 900 -101 callsubr
        </CharString>
        <CharString name="Pecyrillic">
          243 1264 85 callgsubr
        </CharString>
        <CharString name="Phigreek">
          422 684 -58 rmoveto
          184 hlineto
          31 143 rlineto
          464 10 325 304 424 vvcurveto
          305 -188 190 -333 33 vhcurveto
          31 146 rlineto
          -184 hlineto
          -31 -146 rlineto
          -465 -10 -325 -304 -426 vvcurveto
          -303 189 -191 332 -32 vhcurveto
          34 161 rmoveto
          -237 17 -131 137 230 vvcurveto
          330 229 229 339 vhcurveto
          -15 -942 rmoveto
          200 943 rlineto
          236 -16 132 -138 -229 vvcurveto
          -335 -228 -225 -340 vhcurveto
          endchar
        </CharString>
        <CharString name="Pigreek">
          228 1259 hmoveto
          -48 callsubr
          -1136 -92 callgsubr
          183 hlineto
          273 135 callgsubr
          768 hlineto
          -273 -1281 rlineto
          endchar
        </CharString>
        <CharString name="Psigreek">
          402 871 hmoveto
          72 339 442 22 182 186 74 351 rlinecurve
          115 545 rlineto
          -184 hlineto
          -114 -539 rlineto
          -241 -51 -144 -158 -285 hhcurveto
          199 938 rlineto
          -184 hlineto
          -199 -938 rlineto
          -211 14 -114 78 171 vvcurveto
          41 5 45 11 50 vhcurveto
          113 539 rlineto
          -184 hlineto
          -114 -545 rlineto
          -9 -47 -5 -43 -39 vvcurveto
          -255 155 -141 317 -34 vhcurveto
          -72 -339 rlineto
          endchar
        </CharString>
        <CharString name="Q">
          305 1297 -163 rmoveto
          -123 238 rlineto
          245 155 145 299 351 vvcurveto
          346 -246 251 -336 133 callsubr
          80 78 10 25 75 vhcurveto
          85 -164 rlineto
          -304 296 rmoveto
          111 callsubr
          -275 -103 -236 -175 -126 hvcurveto
          -96 186 rlineto
          -194 hlineto
          136 -262 rlineto
          -13 -46 -47 -5 -48 hhcurveto
          endchar
        </CharString>
        <CharString name="R">
          -93 callsubr
          endchar
        </CharString>
        <CharString name="Racute">
          -93 callsubr
          513 844 rmoveto
          37 callgsubr
        </CharString>
        <CharString name="Rcaron">
          -93 callsubr
          309 844 -80 callgsubr
          endchar
        </CharString>
        <CharString name="Rcommaaccent">
          -93 callsubr
          63 -1249 -37 callsubr
        </CharString>
        <CharString name="Rcommaaccent.mini">
          -93 callsubr
          77 -1163 -20 callgsubr
        </CharString>
        <CharString name="Rdblgrave">
          -93 callsubr
          101 844 -23 callsubr
          endchar
        </CharString>
        <CharString name="Rdotaccent">
          -93 callsubr
          426 844 -101 callsubr
        </CharString>
        <CharString name="Rdotbelow">
          -93 callsubr
          124 -1133 -101 callsubr
        </CharString>
        <CharString name="Rdotbelowmacron">
          -93 callsubr
          124 -1133 rmoveto
          -107 callsubr
          651 2158 -96 callsubr
        </CharString>
        <CharString name="Rhogreek">
          27 430 1443 -65 callgsubr
          endchar
        </CharString>
        <CharString name="Rinvertedbreve">
          -93 callsubr
          791 844 -53 callgsubr
          endchar
        </CharString>
        <CharString name="Rlinebelow">
          -93 callsubr
          476 -943 -96 callsubr
        </CharString>
        <CharString name="S">
          2 119 400 rmoveto
          -103 callsubr
          endchar
        </CharString>
        <CharString name="S.mini">
          2 callgsubr
          endchar
        </CharString>
        <CharString name="Sacute">
          2 119 400 rmoveto
          -103 callsubr
          697 1175 rmoveto
          37 callgsubr
        </CharString>
        <CharString name="Sacutedotaccent">
          2 119 400 rmoveto
          -103 callsubr
          810 1175 rmoveto
          -84 callgsubr
          -143 58 -101 callsubr
        </CharString>
        <CharString name="Scaron">
          2 119 400 rmoveto
          -103 callsubr
          493 1175 -80 callgsubr
          endchar
        </CharString>
        <CharString name="Scarondotaccent">
          2 119 400 rmoveto
          -103 callsubr
          493 1175 -22 callsubr
          421 49 -13 callsubr
          endchar
        </CharString>
        <CharString name="Scarondotaccent.mini">
          2 callgsubr
          457 1068 -22 callsubr
          417 34 -13 callsubr
          endchar
        </CharString>
        <CharString name="Scedilla">
          2 719 845 rmoveto
          -158 57 -74 75 102 vvcurveto
          136 130 99 178 175 124 -95 -162 37 vhcurveto
          181 hlineto
          246 -22 -210 174 -274 hhcurveto
          -291 -218 -177 -237 -166 114 -135 197 -69 hvcurveto
          137 -48 rlineto
          186 -65 77 -76 -119 vvcurveto
          -153 -135 -103 -199 -195 -144 105 166 -34 vhcurveto
          -182 hlineto
          35 -244 173 -159 252 -27 -70 -113 rcurveline
          -13 -90 rlineto
          53 hlineto
          87 47 -26 -46 -43 -40 -27 -64 -45 -67 13 15 -35 hvcurveto
          -23 -108 rlineto
          -22 49 69 -14 57 hhcurveto
          144 103 81 114 90 -61 53 -118 13 hvcurveto
          67 108 rlineto
          286 22 194 174 244 vvcurveto
          179 -112 125 -238 86 vhcurveto
          endchar
        </CharString>
        <CharString name="Scedilla.mini">
          2 719 845 rmoveto
          -158 57 -74 75 102 vvcurveto
          136 130 99 178 175 124 -95 -162 37 vhcurveto
          181 hlineto
          246 -22 -210 174 -274 hhcurveto
          -291 -218 -177 -237 -166 114 -135 197 -69 hvcurveto
          137 -48 rlineto
          186 -65 77 -76 -119 vvcurveto
          -153 -135 -103 -199 -195 -144 105 166 -34 vhcurveto
          -182 hlineto
          35 -242 169 -158 249 -29 -63 -109 rcurveline
          -12 -68 rlineto
          66 hlineto
          88 36 -21 -41 -41 -40 -17 -69 -38 -41 5 9 -29 hvcurveto
          -21 -98 rlineto
          -12 30 71 -10 35 hhcurveto
          148 97 63 105 95 -58 50 -122 5 hvcurveto
          51 81 rlineto
          295 15 203 177 249 vvcurveto
          179 -112 125 -238 86 vhcurveto
          endchar
        </CharString>
        <CharString name="Scircumflex">
          2 119 400 rmoveto
          -103 callsubr
          738 1473 -71 callsubr
          endchar
        </CharString>
        <CharString name="Scommaaccent">
          2 119 400 rmoveto
          -103 callsubr
          240 -918 -37 callsubr
        </CharString>
        <CharString name="Scommaaccent.mini">
          2 119 400 rmoveto
          -103 callsubr
          254 -832 -20 callgsubr
        </CharString>
        <CharString name="Sdotaccent">
          2 119 400 rmoveto
          -103 callsubr
          610 1175 -101 callsubr
        </CharString>
        <CharString name="Sdotbelow">
          2 119 400 rmoveto
          -103 callsubr
          301 -802 -101 callsubr
        </CharString>
        <CharString name="Sdotbelowdotaccent">
          2 119 400 rmoveto
          -103 callsubr
          301 -802 rmoveto
          -107 callsubr
          309 1977 -101 callsubr
        </CharString>
        <CharString name="Shacyrillic">
          700 133 hmoveto
          1588 hlineto
          17 callgsubr
          -273 -1281 rlineto
          -518 132 callgsubr
          -273 -1281 rlineto
          -518 132 callgsubr
          endchar
        </CharString>
        <CharString name="Shchacyrillic">
          758 1841 -285 rmoveto
          91 callsubr
          -184 hlineto
          -273 -1281 rlineto
          -518 132 callgsubr
          -273 -1281 rlineto
          -518 -19 callgsubr
          1601 117 callsubr
          endchar
        </CharString>
        <CharString name="Sigmagreek">
          81 352 169 rmoveto
          484 560 7 30 -239 515 2 7 rlineto
          799 hlineto
          34 162 rlineto
          -1022 hlineto
          -28 -134 263 -561 -541 -620 -27 -128 rlineto
          1067 hlineto
          34 162 rlineto
          -835 hlineto
          endchar
        </CharString>
        <CharString name="Softsigncyrillic">
          29 -55 callgsubr
          endchar
        </CharString>
        <CharString name="T">
          87 callgsubr
        </CharString>
        <CharString name="Taugreek">
          24 89 callsubr
        </CharString>
        <CharString name="Tbar">
          24 1413 1281 rmoveto
          34 162 rlineto
          -1110 hlineto
          -34 -162 rlineto
          463 hlineto
          -104 -488 rlineto
          -299 hlineto
          -30 -143 rlineto
          299 hlineto
          -138 -650 rlineto
          184 hlineto
          138 650 rlineto
          307 hlineto
          30 143 rlineto
          -307 hlineto
          104 488 rlineto
          endchar
        </CharString>
        <CharString name="Tcaron">
          24 -60 callsubr
          343 1575 -80 callgsubr
          endchar
        </CharString>
        <CharString name="Tcedilla">
          24 337 1443 rmoveto
          -34 -162 rlineto
          463 hlineto
          -272 -1281 rlineto
          21 hlineto
          -89 -143 -13 -90 rlineto
          53 hlineto
          87 47 -26 -46 -43 -40 -27 -64 -45 -67 13 15 -35 hvcurveto
          -23 -108 rlineto
          -22 49 69 -14 57 hhcurveto
          144 103 81 114 90 -61 53 -118 13 hvcurveto
          87 140 rlineto
          22 hlineto
          272 1281 rlineto
          463 hlineto
          34 162 rlineto
          endchar
        </CharString>
        <CharString name="Tcedilla.mini">
          17 337 1443 rmoveto
          -34 -162 rlineto
          463 hlineto
          -272 -1281 rlineto
          18 hlineto
          -80 -138 -12 -68 rlineto
          66 hlineto
          88 36 -21 -41 -41 -40 -17 -69 -38 -41 5 9 -29 hvcurveto
          -21 -98 rlineto
          -12 30 71 -10 35 hhcurveto
          148 97 63 105 95 -58 50 -122 5 hvcurveto
          72 114 rlineto
          33 hlineto
          272 1281 rlineto
          463 hlineto
          34 162 rlineto
          endchar
        </CharString>
        <CharString name="Tcircumflexbelow">
          24 -60 callsubr
          147 -142 -59 callgsubr
          endchar
        </CharString>
        <CharString name="Tcommaaccent">
          24 -60 callsubr
          -26 -518 -37 callsubr
        </CharString>
        <CharString name="Tcommaaccent.mini">
          24 -60 callsubr
          -12 -432 -20 callgsubr
        </CharString>
        <CharString name="Tdotaccent">
          24 -60 callsubr
          460 1575 -101 callsubr
        </CharString>
        <CharString name="Tdotbelow">
          24 -60 callsubr
          35 24 callgsubr
          endchar
        </CharString>
        <CharString name="Tecyrillic">
          87 callgsubr
        </CharString>
        <CharString name="Thetagreek">
          308 1169 638 rmoveto
          35 162 rlineto
          -605 hlineto
          152 callsubr
          197 -672 rmoveto
          475 331 375 539 389 -199 208 -372 -471 -324 -376 -547 -374 203 -214 357 hvcurveto
          620 889 rmoveto
          -419 -248 -304 -341 -260 -145 161 287 428 243 303 343 268 140 -157 -299 vhcurveto
          endchar
        </CharString>
        <CharString name="Thorn">
          6 124 hmoveto
          180 hlineto
          74 349 rlineto
          340 hlineto
          331 222 190 282 211 -159 145 -227 hvcurveto
          -332 hlineto
          57 266 156 callsubr
          89 -426 rmoveto
          304 hlineto
          171 88 -82 -130 -187 -139 -109 -237 hvcurveto
          -295 hlineto
          endchar
        </CharString>
        <CharString name="Tlinebelow">
          24 -60 callsubr
          387 -212 -96 callsubr
        </CharString>
        <CharString name="Tsecyrillic">
          302 1385 -285 rmoveto
          91 callsubr
          -183 hlineto
          -273 -1281 rlineto
          -768 107 callsubr
        </CharString>
        <CharString name="Tshecyrillic">
          481 1186 745 rmoveto
          200 88 -128 -222 -47 hvcurveto
          -84 -395 rlineto
          184 hlineto
          83 387 rlineto
          320 68 -157 200 -300 hhcurveto
          -154 -122 -68 -76 -90 hvcurveto
          -16 hlineto
          110 518 rlineto
          463 116 callgsubr
          152 callsubr
          463 hlineto
          -272 -1281 rlineto
          184 hlineto
          114 535 rlineto
          118 83 154 92 158 hhcurveto
          endchar
        </CharString>
        <CharString name="U">
          -104 callsubr
          endchar
        </CharString>
        <CharString name="U.mini">
          -75 callgsubr
          endchar
        </CharString>
        <CharString name="Uacute">
          -104 callsubr
          414 1609 rmoveto
          37 callgsubr
        </CharString>
        <CharString name="Ubreve">
          -104 callsubr
          -28 1907 rmoveto
          66 callsubr
        </CharString>
        <CharString name="Ucaron">
          -104 callsubr
          210 1609 -80 callgsubr
          endchar
        </CharString>
        <CharString name="Ucircumflex">
          -104 callsubr
          455 1907 -71 callsubr
          endchar
        </CharString>
        <CharString name="Ucircumflexbelow">
          -104 callsubr
          18 -108 -59 callgsubr
          endchar
        </CharString>
        <CharString name="Ucyrillic">
          -70 callsubr
          endchar
        </CharString>
        <CharString name="Udblgrave">
          -104 callsubr
          2 1609 -23 callsubr
          endchar
        </CharString>
        <CharString name="Udieresis">
          -104 callsubr
          124 1609 rmoveto
          -107 callsubr
          404 hmoveto
          -107 callsubr
          endchar
        </CharString>
        <CharString name="Udieresisacute">
          -104 callsubr
          238 1907 55 callsubr
          endchar
        </CharString>
        <CharString name="Udieresisacute.mini">
          -75 callgsubr
          366 430 55 callsubr
          endchar
        </CharString>
        <CharString name="Udieresisbelow">
          -104 callsubr
          -302 -398 rmoveto
          -107 callsubr
          404 hmoveto
          -107 callsubr
          endchar
        </CharString>
        <CharString name="Udieresiscaron">
          -104 callsubr
          271 1896 -22 callsubr
          97 -286 rmoveto
          -65 -52 -52 -65 -65 52 -52 65 65 52 52 65 65 -52 52 -65 hvcurveto
          404 hmoveto
          126 callgsubr
        </CharString>
        <CharString name="Udieresiscaron.mini">
          -75 callgsubr
          252 132 rmoveto
          -107 callsubr
          404 hmoveto
          -107 callsubr
          -257 287 -22 callsubr
          endchar
        </CharString>
        <CharString name="Udieresisgrave">
          -104 callsubr
          422 1907 rmoveto
          -183 86 callgsubr
          234 -222 rlineto
          -122 -298 rmoveto
          -107 callsubr
          404 hmoveto
          -107 callsubr
          endchar
        </CharString>
        <CharString name="Udieresisgrave.mini">
          -75 callgsubr
          550 430 rmoveto
          -183 86 callgsubr
          234 -222 rlineto
          -122 -298 rmoveto
          -107 callsubr
          404 hmoveto
          -107 callsubr
          endchar
        </CharString>
        <CharString name="Udieresismacron">
          -104 callsubr
          127 1843 -33 callsubr
        </CharString>
        <CharString name="Udieresismacron.mini">
          -75 callgsubr
          167 489 72 callsubr
          57 -487 rmoveto
          -107 callsubr
          404 hmoveto
          -107 callsubr
          endchar
        </CharString>
        <CharString name="Udotbelow">
          -104 callsubr
          -94 -368 -101 callsubr
        </CharString>
        <CharString name="Ugrave">
          -104 callsubr
          198 1609 -11 callsubr
          endchar
        </CharString>
        <CharString name="Uhookabove">
          -104 callsubr
          194 1825 -59 callsubr
          endchar
        </CharString>
        <CharString name="Uhorn">
          396 736 -34 -81 callgsubr
        </CharString>
        <CharString name="Uhornacute">
          396 1150 1575 55 callgsubr
          -1609 -81 callgsubr
        </CharString>
        <CharString name="Uhorndotbelow">
          396 642 24 callgsubr
          94 368 -81 callgsubr
        </CharString>
        <CharString name="Uhorngrave">
          396 934 136 callgsubr
          8 -1907 -81 callgsubr
        </CharString>
        <CharString name="Uhornhookabove">
          396 930 1791 -59 callsubr
          -219 -1942 -81 callgsubr
        </CharString>
        <CharString name="Uhorntilde">
          396 1216 57 callsubr
          -480 -1604 -81 callgsubr
        </CharString>
        <CharString name="Uhungarumlaut">
          -104 callsubr
          602 1609 23 callsubr
        </CharString>
        <CharString name="Uinvertedbreve">
          -104 callsubr
          692 1609 -53 callgsubr
          endchar
        </CharString>
        <CharString name="Umacron">
          -104 callsubr
          676 1790 -96 callsubr
        </CharString>
        <CharString name="Umacrondieresis">
          -104 callsubr
          647 1654 -22 callgsubr
          207 241 -82 callgsubr
          endchar
        </CharString>
        <CharString name="Umacrondieresis.mini">
          -75 callgsubr
          101 177 72 callsubr
          179 96 -82 callgsubr
          endchar
        </CharString>
        <CharString name="Uogonek">
          250 979 -422 rmoveto
          4 callgsubr
          24 27 4 6 22 vhcurveto
          endchar
        </CharString>
        <CharString name="Uogonek.mini">
          250 906 -432 rmoveto
          24 27 4 6 22 hvcurveto
          4 callgsubr
          vhcurveto
          endchar
        </CharString>
        <CharString name="Upsilondieresisgreek">
          -79 callsubr
          249 32 callsubr
          endchar
        </CharString>
        <CharString name="Upsilongreek">
          -79 callsubr
          endchar
        </CharString>
        <CharString name="Upsilontonosgreek">
          433 1068 hmoveto
          -77 callgsubr
          -636 1105 -19 callsubr
        </CharString>
        <CharString name="Uring">
          -104 callsubr
          347 1595 -86 callgsubr
        </CharString>
        <CharString name="Ushortcyrillic">
          -70 callsubr
          367 1884 -74 callsubr
        </CharString>
        <CharString name="Utilde">
          -104 callsubr
          480 1604 -103 callgsubr
          endchar
        </CharString>
        <CharString name="Utildeacute">
          -104 callsubr
          270 1907 rmoveto
          190 hlineto
          295 222 98 callsubr
          -79 -521 -94 callgsubr
          endchar
        </CharString>
        <CharString name="Utildeacute.mini">
          -75 callgsubr
          398 430 rmoveto
          190 hlineto
          285 207 98 callsubr
          -69 -506 -94 callgsubr
          endchar
        </CharString>
        <CharString name="Utildebelow">
          -104 callsubr
          53 -405 -103 callgsubr
          endchar
        </CharString>
        <CharString name="V">
          37 callsubr
          endchar
        </CharString>
        <CharString name="Vdotbelow">
          37 callsubr
          31 24 callgsubr
          endchar
        </CharString>
        <CharString name="Vecyrillic">
          92 723 -81 callsubr
          endchar
        </CharString>
        <CharString name="Vtilde">
          37 callsubr
          598 57 callsubr
          endchar
        </CharString>
        <CharString name="W">
          -75 callsubr
          endchar
        </CharString>
        <CharString name="Wacute">
          -75 callsubr
          778 1575 rmoveto
          37 callgsubr
        </CharString>
        <CharString name="Wcircumflex">
          -75 callsubr
          819 100 callsubr
          endchar
        </CharString>
        <CharString name="Wdieresis">
          -75 callsubr
          488 32 callsubr
          endchar
        </CharString>
        <CharString name="Wdotaccent">
          -75 callsubr
          691 1575 -101 callsubr
        </CharString>
        <CharString name="Wdotbelow">
          -75 callsubr
          270 24 callgsubr
          endchar
        </CharString>
        <CharString name="Wgrave">
          -75 callsubr
          562 136 callgsubr
          endchar
        </CharString>
        <CharString name="X">
          116 31 -41 callsubr
          endchar
        </CharString>
        <CharString name="Xacyrillic">
          116 31 -41 callsubr
          endchar
        </CharString>
        <CharString name="Xdieresis">
          116 31 -41 callsubr
          107 823 rmoveto
          -107 callsubr
          404 hmoveto
          -107 callsubr
          endchar
        </CharString>
        <CharString name="Xdotaccent">
          116 31 -41 callsubr
          310 823 -101 callsubr
        </CharString>
        <CharString name="Xigreek">
          69 389 158 callgsubr
          -35 -167 rlineto
          1059 hlineto
          35 167 rlineto
          -255 -790 rmoveto
          36 165 rlineto
          -885 hlineto
          -36 -165 rlineto
          -190 -486 rmoveto
          -35 -167 rlineto
          1059 hlineto
          35 167 rlineto
          endchar
        </CharString>
        <CharString name="Y">
          -79 callsubr
          endchar
        </CharString>
        <CharString name="Yacute">
          -79 callsubr
          539 1575 rmoveto
          37 callgsubr
        </CharString>
        <CharString name="Ycircumflex">
          -79 callsubr
          580 100 callsubr
          endchar
        </CharString>
        <CharString name="Ydieresis">
          -79 callsubr
          249 32 callsubr
          endchar
        </CharString>
        <CharString name="Ydotaccent">
          -79 callsubr
          452 1575 -101 callsubr
        </CharString>
        <CharString name="Ydotbelow">
          -79 callsubr
          31 24 callgsubr
          endchar
        </CharString>
        <CharString name="Yericyrillic">
          -45 callsubr
          endchar
        </CharString>
        <CharString name="Ygrave">
          -79 callsubr
          323 136 callgsubr
          endchar
        </CharString>
        <CharString name="Yhookabove">
          -79 callsubr
          319 1791 -59 callsubr
          endchar
        </CharString>
        <CharString name="Yicyrillic">
          40 callsubr
        </CharString>
        <CharString name="Yicyrillic.1">
          -246 978 1575 rmoveto
          67 54 54 67 67 -54 54 -67 -67 -54 -54 -67 -67 54 -54 67 hvcurveto
          -404 0 rmoveto
          67 54 54 67 67 -54 54 -67 -67 -54 -54 -67 -67 54 -54 67 hvcurveto
          518 -286 rmoveto
          33 154 rlineto
          -272 hlineto
          -184 hlineto
          -272 hlineto
          -33 -154 rlineto
          272 hlineto
          -241 -1135 rlineto
          -272 hlineto
          -33 -154 rlineto
          272 hlineto
          184 hlineto
          272 hlineto
          33 154 rlineto
          -272 hlineto
          241 1135 rlineto
          endchar
        </CharString>
        <CharString name="Ymacron">
          -79 callsubr
          801 1756 -96 callsubr
        </CharString>
        <CharString name="Ytilde">
          -79 callsubr
          605 57 callsubr
          endchar
        </CharString>
        <CharString name="Z">
          81 84 hmoveto
          -60 callgsubr
          endchar
        </CharString>
        <CharString name="Zacute">
          81 84 hmoveto
          -60 callgsubr
          949 1447 rmoveto
          37 callgsubr
        </CharString>
        <CharString name="Zcaron">
          81 84 hmoveto
          -60 callgsubr
          745 1447 -80 callgsubr
          endchar
        </CharString>
        <CharString name="Zcircumflex">
          81 84 hmoveto
          -60 callgsubr
          990 1745 -71 callsubr
          endchar
        </CharString>
        <CharString name="Zdotaccent">
          81 84 hmoveto
          -60 callgsubr
          862 1447 -101 callsubr
        </CharString>
        <CharString name="Zdotbelow">
          81 84 hmoveto
          -60 callgsubr
          438 -530 -101 callsubr
        </CharString>
        <CharString name="Zecyrillic">
          5 502 659 -74 callgsubr
          endchar
        </CharString>
        <CharString name="Zetagreek">
          81 84 hmoveto
          -60 callgsubr
          endchar
        </CharString>
        <CharString name="Zhecyrillic">
          793 993 -40 callgsubr
          endchar
        </CharString>
        <CharString name="Zlinebelow">
          81 84 hmoveto
          -60 callgsubr
          790 -340 -96 callsubr
        </CharString>
        <CharString name="a">
          -148 490 -107 callgsubr
          endchar
        </CharString>
        <CharString name="a.1">
          -16 594 136 -106 callsubr
          endchar
        </CharString>
        <CharString name="aacute">
          -148 490 -107 callgsubr
          399 1282 -73 callgsubr
          endchar
        </CharString>
        <CharString name="aacute.1">
          -16 594 136 -106 callsubr
          8 1263 -73 callgsubr
          endchar
        </CharString>
        <CharString name="abreve">
          -148 490 -107 callgsubr
          -34 1575 -66 callgsubr
        </CharString>
        <CharString name="abreve.1">
          -16 594 136 -106 callsubr
          -395 15 callsubr
        </CharString>
        <CharString name="abreveacute">
          -148 490 -107 callgsubr
          234 1594 -8 callsubr
        </CharString>
        <CharString name="abreveacute.1">
          -16 594 136 -106 callsubr
          -127 1575 -8 callsubr
        </CharString>
        <CharString name="abrevedotbelow">
          -148 490 -107 callgsubr
          -34 1575 -83 callsubr
          -78 -1958 -101 callsubr
        </CharString>
        <CharString name="abrevedotbelow.1">
          -16 594 136 -106 callsubr
          -395 1556 -83 callsubr
          -171 -1958 -101 callsubr
        </CharString>
        <CharString name="abrevegrave">
          -148 490 -107 callgsubr
          424 1594 -9 callsubr
        </CharString>
        <CharString name="abrevegrave.1">
          -16 594 136 -106 callsubr
          83 1575 -9 callsubr
        </CharString>
        <CharString name="abrevehookabove">
          -148 490 -107 callgsubr
          187 1791 -25 callgsubr
        </CharString>
        <CharString name="abrevehookabove.1">
          -16 594 136 -106 callsubr
          -174 1772 -25 callgsubr
        </CharString>
        <CharString name="abrevetilde">
          -148 490 -107 callgsubr
          688 1546 rmoveto
          90 callgsubr
          -152 vlineto
          -4 0 -3 -3 vvcurveto
          -171 139 -117 203 97 callsubr
          -165 84 -61 callsubr
        </CharString>
        <CharString name="abrevetilde.1">
          -16 594 136 -106 callsubr
          327 1527 rmoveto
          90 callgsubr
          -152 vlineto
          -4 0 -3 -3 vvcurveto
          -171 139 -117 203 97 callsubr
          -165 84 -61 callsubr
        </CharString>
        <CharString name="acaron">
          -148 490 -107 callgsubr
          409 1247 -78 callsubr
        </CharString>
        <CharString name="acaron.1">
          -16 594 136 -106 callsubr
          68 1228 -78 callsubr
        </CharString>
        <CharString name="acircumflex">
          -148 490 -107 callgsubr
          457 99 callgsubr
          endchar
        </CharString>
        <CharString name="acircumflex.1">
          -16 594 136 -106 callsubr
          136 1568 -49 callsubr
        </CharString>
        <CharString name="acircumflexacute">
          -148 490 -107 callgsubr
          464 1567 -76 callgsubr
          -115 347 21 callsubr
          endchar
        </CharString>
        <CharString name="acircumflexacute.1">
          -16 594 136 -106 callsubr
          123 1548 -76 callgsubr
          -115 347 21 callsubr
          endchar
        </CharString>
        <CharString name="acircumflexdotbelow">
          -148 490 -107 callgsubr
          457 99 callgsubr
          -628 -1630 -101 callsubr
        </CharString>
        <CharString name="acircumflexdotbelow.1">
          -16 594 136 -106 callsubr
          116 1568 -73 callsubr
          -693 -1630 -101 callsubr
        </CharString>
        <CharString name="acircumflexgrave">
          -148 490 -107 callgsubr
          792 1594 14 callsubr
          -157 -27 -76 callgsubr
          endchar
        </CharString>
        <CharString name="acircumflexgrave.1">
          -16 594 136 -106 callsubr
          451 130 callgsubr
          -157 -27 -76 callgsubr
          endchar
        </CharString>
        <CharString name="acircumflexhookabove">
          -148 490 -107 callgsubr
          504 1767 -87 callsubr
          -66 -318 -76 callgsubr
          endchar
        </CharString>
        <CharString name="acircumflexhookabove.1">
          -16 594 136 -106 callsubr
          163 1748 -87 callsubr
          -66 -318 -76 callgsubr
          endchar
        </CharString>
        <CharString name="acircumflextilde">
          -148 490 -107 callgsubr
          464 1567 -76 callgsubr
          -115 383 -61 callsubr
        </CharString>
        <CharString name="acircumflextilde.1">
          -16 594 136 -106 callsubr
          123 1548 -76 callgsubr
          -115 383 -61 callsubr
        </CharString>
        <CharString name="acute">
          -180 713 1263 -73 callgsubr
          endchar
        </CharString>
        <CharString name="acutecmb">
          305 1263 -73 callgsubr
          endchar
        </CharString>
        <CharString name="acutecmb.short">
          388 1575 rmoveto
          37 callgsubr
        </CharString>
        <CharString name="acutedotaccentcmb">
          425 1228 -73 callgsubr
          -162 24 -67 callgsubr
        </CharString>
        <CharString name="acutedotaccentcmb.short">
          501 1575 rmoveto
          -84 callgsubr
          -143 58 -101 callsubr
        </CharString>
        <CharString name="acyrillic">
          -128 500 -107 callgsubr
          endchar
        </CharString>
        <CharString name="acyrillic.1">
          5 616 136 -106 callsubr
          endchar
        </CharString>
        <CharString name="adblgrave">
          -148 490 -107 callgsubr
          155 1282 -36 callgsubr
        </CharString>
        <CharString name="adblgrave.1">
          -16 594 136 -106 callsubr
          -186 1263 -36 callgsubr
        </CharString>
        <CharString name="adieresis">
          -148 490 -107 callgsubr
          118 1247 rmoveto
          -107 callsubr
          404 hmoveto
          -107 callsubr
          endchar
        </CharString>
        <CharString name="adieresis.1">
          -16 594 136 -106 callsubr
          -223 1228 rmoveto
          -107 callsubr
          404 hmoveto
          -107 callsubr
          endchar
        </CharString>
        <CharString name="adieresismacron">
          -148 490 -107 callgsubr
          117 1247 -31 callgsubr
        </CharString>
        <CharString name="adieresismacron.1">
          -16 594 136 -106 callsubr
          -224 48 callgsubr
        </CharString>
        <CharString name="adotaccent">
          -148 490 -107 callgsubr
          335 1306 -67 callgsubr
        </CharString>
        <CharString name="adotaccent.1">
          -16 594 136 -106 callsubr
          -23 1287 -67 callgsubr
        </CharString>
        <CharString name="adotbelow">
          -148 490 -107 callgsubr
          39 -383 -101 callsubr
        </CharString>
        <CharString name="adotbelow.1">
          -16 594 136 -106 callsubr
          -384 24 callgsubr
          endchar
        </CharString>
        <CharString name="adotmacron">
          -148 490 -107 callgsubr
          316 1247 18 callsubr
        </CharString>
        <CharString name="adotmacron.1">
          -16 594 136 -106 callsubr
          -25 1228 18 callsubr
        </CharString>
        <CharString name="ae">
          592 1273 -88 callsubr
          endchar
        </CharString>
        <CharString name="aeacute">
          600 1273 -88 callsubr
          714 1133 -73 callgsubr
          endchar
        </CharString>
        <CharString name="aemacron">
          600 1273 -88 callsubr
          988 1292 -96 callsubr
        </CharString>
        <CharString name="agrave">
          -148 490 -107 callgsubr
          361 1282 -24 callsubr
        </CharString>
        <CharString name="agrave.1">
          -16 594 135 -106 callsubr
          30 1263 -24 callsubr
        </CharString>
        <CharString name="ahookabove">
          -148 490 -107 callgsubr
          195 1483 -87 callsubr
          endchar
        </CharString>
        <CharString name="ahookabove.1">
          -16 594 136 -106 callsubr
          -195 1474 -87 callsubr
          endchar
        </CharString>
        <CharString name="ainvertedbreve">
          -148 490 -107 callgsubr
          695 1247 -58 callsubr
        </CharString>
        <CharString name="ainvertedbreve.1">
          -16 594 136 -106 callsubr
          354 1228 -58 callsubr
        </CharString>
        <CharString name="alphagreek">
          -5 callgsubr
          endchar
        </CharString>
        <CharString name="alphatonosgreek">
          -5 callgsubr
          93 1127 -19 callsubr
        </CharString>
        <CharString name="amacron">
          -148 490 -107 callgsubr
          673 1441 -96 callsubr
        </CharString>
        <CharString name="amacron.1">
          -16 594 136 -106 callsubr
          332 1422 -96 callsubr
        </CharString>
        <CharString name="ampersand">
          183 605 1116 rmoveto
          120 100 97 121 107 77 -61 -98 -105 -86 -119 -215 -65 vhcurveto
          -73 100 -31 67 64 vvcurveto
          3 -992 rmoveto
          -196 -120 114 150 127 96 109 182 67 hvcurveto
          57 21 322 -487 rlineto
          -74 -101 -133 -27 -107 hhcurveto
          487 -124 rmoveto
          213 hlineto
          -139 208 115 122 80 161 17 210 rlinecurve
          5 61 rlineto
          -168 hlineto
          -4 -54 -12 -159 -49 -118 -76 -86 rlinecurve
          -291 427 rlineto
          277 93 118 159 164 vvcurveto
          166 -147 123 -201 -228 -172 -161 -195 -83 35 -86 81 -119 vhcurveto
          -62 -24 rlineto
          -252 -98 -123 -147 -188 vvcurveto
          -228 218 -175 270 166 154 45 78 113 vhcurveto
          endchar
        </CharString>
        <CharString name="anoteleia">
          -644 454 805 rmoveto
          -15 callgsubr
          endchar
        </CharString>
        <CharString name="aogonek">
          -21 callsubr
        </CharString>
        <CharString name="aogonek.1">
          74 callgsubr
          341 -558 112 callsubr
          231 1088 58 callsubr
          -45 -203 rlineto
          -15 hlineto
          122 -38 -120 100 -180 hhcurveto
          -283 -256 -257 -406 -292 176 -161 228 123 121 71 120 89 hvcurveto
          16 hlineto
          -33 -162 rlineto
          -149 -54 -93 -80 131 callsubr
        </CharString>
        <CharString name="aogonek.mini">
          -21 callsubr
        </CharString>
        <CharString name="aogonek.mini.1">
          74 callgsubr
          -46 -155 rmoveto
          123 121 71 120 89 hvcurveto
          16 hlineto
          -33 -162 rlineto
          -149 -54 -93 -80 44 callgsubr
          114 callgsubr
          231 1088 58 callsubr
          -45 -203 rlineto
          -15 hlineto
          122 -38 -120 100 -180 hhcurveto
          -283 -256 -257 -406 -292 176 -161 228 hvcurveto
          endchar
        </CharString>
        <CharString name="approxequal">
          54 899 539 -32 callsubr
          -93 -438 -32 callsubr
          endchar
        </CharString>
        <CharString name="approxequal.uc">
          54 969 679 -32 callsubr
          -93 -438 -32 callsubr
          endchar
        </CharString>
        <CharString name="aring">
          -148 490 -107 callgsubr
          344 1247 -86 callgsubr
        </CharString>
        <CharString name="aring.1">
          -16 594 136 -106 callsubr
          3 1228 -86 callgsubr
        </CharString>
        <CharString name="aringacute">
          -148 490 -107 callgsubr
          246 1702 -4 callgsubr
        </CharString>
        <CharString name="aringacute.1">
          -16 594 136 -106 callsubr
          -95 1683 -4 callgsubr
        </CharString>
        <CharString name="aringbelow">
          -148 490 -107 callgsubr
          26 -554 -86 callgsubr
        </CharString>
        <CharString name="aringbelow.1">
          -16 594 136 -106 callsubr
          -308 -573 -86 callgsubr
        </CharString>
        <CharString name="aringbelow.mini">
          -148 490 -107 callgsubr
          45 -145 6 callsubr
        </CharString>
        <CharString name="aringbelow.mini.1">
          -16 594 136 -106 callsubr
          -378 -164 6 callsubr
        </CharString>
        <CharString name="asciicircum">
          -290 696 1280 rmoveto
          16 hlineto
          114 -500 rlineto
          163 hlineto
          -160 639 rlineto
          -190 hlineto
          -432 -639 rlineto
          163 hlineto
          endchar
        </CharString>
        <CharString name="asciitilde">
          -72 726 512 -32 callsubr
          endchar
        </CharString>
        <CharString name="asterisk">
          -242 924 789 rmoveto
          90 111 -230 154 286 109 -41 121 -278 -139 77 291 -130 10 -47 -292 -210 182 -91 -110 231 -154 -287 -109 42 -121 278 138 -77 -290 130 -10 47 290 rlineto
          endchar
        </CharString>
        <CharString name="asterisk.uc">
          54 1118 304 rmoveto
          106 138 -361 236 434 155 -60 161 -410 -210 107 439 -171 18 -53 -448 -324 286 -108 -137 363 -237 -432 -152 60 -161 410 210 -107 -440 173 -18 48 447 rlineto
          endchar
        </CharString>
        <CharString name="at">
          606 1174 1438 -23 callgsubr
        </CharString>
        <CharString name="at.uc">
          605 1134 1559 -23 callgsubr
        </CharString>
        <CharString name="atilde">
          -148 490 -107 callgsubr
          491 1236 -103 callgsubr
          endchar
        </CharString>
        <CharString name="atilde.1">
          -16 594 136 -106 callsubr
          150 1217 -103 callgsubr
          endchar
        </CharString>
        <CharString name="austral">
          54 1024 hmoveto
          179 hlineto
          -57 403 rlineto
          103 98 callgsubr
          -151 hlineto
          -26 173 rlineto
          213 98 callgsubr
          -261 hlineto
          -84 595 147 callgsubr
          -338 -595 rlineto
          -261 -55 callsubr
          213 hlineto
          -98 -173 rlineto
          -151 -55 callsubr
          103 hlineto
          -229 -403 rlineto
          195 hlineto
          221 403 rlineto
          554 hlineto
          -114 806 rmoveto
          16 hlineto
          45 -371 rlineto
          -264 hlineto
          301 -299 rmoveto
          -464 hlineto
          99 183 rlineto
          342 hlineto
          endchar
        </CharString>
        <CharString name="b">
          -15 -48 callgsubr
          endchar
        </CharString>
        <CharString name="backslash">
          -532 393 -307 141 callsubr
        </CharString>
        <CharString name="backslash.uc">
          -532 422 -167 141 callsubr
        </CharString>
        <CharString name="baht">
          54 747 665 rmoveto
          164 -9 79 -74 -139 vvcurveto
          -161 -149 -122 -201 -1 vhcurveto
          -309 0 rmoveto
          108 507 rlineto
          175 hlineto
          -108 -507 rlineto
          64 1125 rmoveto
          175 hlineto
          -98 -463 rlineto
          -175 hlineto
          406 458 rmoveto
          125 -19 58 -62 -110 vvcurveto
          -140 -103 -102 -177 -21 vhcurveto
          155 -68 rmoveto
          189 41 123 145 182 vvcurveto
          179 -129 120 -207 17 vhcurveto
          34 159 rlineto
          -134 hlineto
          -33 -157 rlineto
          -358 hlineto
          -307 -1443 rlineto
          358 hlineto
          -30 -142 rlineto
          134 hlineto
          30 142 rlineto
          38 hlineto
          315 222 191 267 149 -104 105 -145 29 hvcurveto
          endchar
        </CharString>
        <CharString name="bar">
          -532 319 -307 128 callsubr
        </CharString>
        <CharString name="bar.uc">
          -532 348 -167 128 callsubr
        </CharString>
        <CharString name="bdotaccent">
          -16 -48 callgsubr
          -84 1502 -101 callsubr
        </CharString>
        <CharString name="bdotbelow">
          -16 -48 callgsubr
          -112 -538 -101 callsubr
        </CharString>
        <CharString name="becyrillic">
          -42 715 902 rmoveto
          172 99 -121 -209 -244 -168 -192 -196 -176 -106 116 188 260 143 202 232 hvcurveto
          146 546 rmoveto
          -376 -17 -142 -229 -110 -376 rrcurveto
          -37 -127 -33 -143 -127 vvcurveto
          -264 176 -184 261 375 195 296 336 253 -164 191 -259 -163 -106 -78 -101 -75 vhcurveto
          -16 hlineto
          83 235 97 163 266 12 135 6 rcurveline
          214 9 73 55 0 vvcurveto
          32 154 -1 -1 -121 -49 -171 -8 rlinecurve
          endchar
        </CharString>
        <CharString name="betagreek">
          -12 324 1079 rmoveto
          -306 -1439 162 callsubr
          119 559 -18 callgsubr
          -154 57 126 -64 176 hhcurveto
          293 225 220 278 168 -83 104 -162 62 hvcurveto
          3 17 rlineto
          165 64 83 129 168 vvcurveto
          201 -164 133 -234 -281 -144 -153 -293 -62 vhcurveto
          275 -344 rmoveto
          115 hlineto
          197 111 -99 -171 -184 -150 -145 -195 -187 -125 108 178 19 6 45 11 52 hvcurveto
          112 523 rlineto
          213 46 102 96 155 hhcurveto
          161 74 -85 -122 -161 -121 -113 -182 hvcurveto
          -97 hlineto
          endchar
        </CharString>
        <CharString name="bitcoin">
          54 367 182 rmoveto
          105 486 rlineto
          234 hlineto
          179 86 -72 -142 -155 -144 -117 -194 hvcurveto
          -36 1080 rmoveto
          185 hlineto
          177 80 -62 -127 -151 -125 -105 -212 hvcurveto
          -199 hlineto
          416 -61 rmoveto
          182 39 118 139 175 vvcurveto
          138 -80 102 -134 42 vhcurveto
          44 209 rlineto
          -134 hlineto
          -40 -187 rlineto
          1 -9 -9 0 -9 hhcurveto
          -125 hlineto
          40 186 rlineto
          -134 hlineto
          -40 -186 rlineto
          -135 hlineto
          -295 -1385 rlineto
          135 hlineto
          -39 -185 rlineto
          134 hlineto
          40 185 rlineto
          151 hlineto
          -39 -185 rlineto
          134 hlineto
          40 189 rlineto
          261 28 179 173 235 vvcurveto
          143 -100 100 -140 28 vhcurveto
          endchar
        </CharString>
        <CharString name="blinebelow">
          -16 -48 callgsubr
          240 -348 -96 callsubr
        </CharString>
        <CharString name="braceleft">
          -492 305 293 -3 callsubr
        </CharString>
        <CharString name="braceleft.uc">
          -492 334 433 -3 callsubr
        </CharString>
        <CharString name="braceright">
          -492 612 906 -2 callgsubr
        </CharString>
        <CharString name="braceright.uc">
          -492 642 1046 -2 callgsubr
        </CharString>
        <CharString name="bracketleft">
          -492 498 1506 95 callsubr
        </CharString>
        <CharString name="bracketleft.uc">
          -492 528 1646 95 callsubr
        </CharString>
        <CharString name="bracketright">
          -492 419 -307 95 callgsubr
        </CharString>
        <CharString name="bracketright.uc">
          -492 449 -167 95 callgsubr
        </CharString>
        <CharString name="breve">
          -180 460 15 callsubr
        </CharString>
        <CharString name="breveacutecmb">
          140 1575 -8 callsubr
        </CharString>
        <CharString name="breveacutecmb.mini">
          78 callsubr
          81 hmoveto
          192 hlineto
          294 207 98 callsubr
          endchar
        </CharString>
        <CharString name="breveacutecmb.short">
          177 1873 39 callgsubr
        </CharString>
        <CharString name="brevebelowcmb">
          -504 -134 27 callgsubr
        </CharString>
        <CharString name="brevecmb">
          -128 15 callsubr
        </CharString>
        <CharString name="brevecmb.short">
          -54 1873 rmoveto
          66 callsubr
        </CharString>
        <CharString name="brevecyrillic">
          -264 435 1556 -84 callsubr
        </CharString>
        <CharString name="brevecyrillic.short">
          -35 1873 -74 callsubr
        </CharString>
        <CharString name="brevegravecmb">
          330 1575 -9 callsubr
        </CharString>
        <CharString name="brevegravecmb.mini">
          78 callsubr
          331 hmoveto
          -172 207 98 callsubr
          198 -207 rlineto
          endchar
        </CharString>
        <CharString name="brevegravecmb.short">
          427 1873 43 callsubr
        </CharString>
        <CharString name="brevehookabovecmb">
          93 1772 -25 callgsubr
        </CharString>
        <CharString name="brevehookabovecmb.mini">
          -56 1873 rmoveto
          -180 135 -118 207 143 callsubr
          -106 -27 -82 -63 -111 hhcurveto
          -113 -76 66 103 -5 hvcurveto
          64 176 rmoveto
          6 29 32 4 28 hhcurveto
          65 35 -22 -41 -51 -44 -37 -78 -13 hvcurveto
          48 -99 rlineto
          133 32 86 87 100 vvcurveto
          96 -85 62 -134 -29 -36 -6 -8 -25 vhcurveto
          endchar
        </CharString>
        <CharString name="brevehookabovecmb.short">
          160 2049 24 callsubr
        </CharString>
        <CharString name="brevetildecmb">
          594 1527 rmoveto
          90 callgsubr
          -152 vlineto
          -4 0 -3 -3 vvcurveto
          -171 139 -117 203 97 callsubr
          -165 84 -61 callsubr
        </CharString>
        <CharString name="brevetildecmb.mini">
          -95 1813 rmoveto
          -102 134 -136 208 199 154 104 134 25 vhcurveto
          -154 hlineto
          -67 -17 -81 -46 -122 hhcurveto
          -115 -74 60 53 -5 hvcurveto
          341 41 -34 callgsubr
        </CharString>
        <CharString name="brevetildecmb.short">
          432 1854 16 callgsubr
        </CharString>
        <CharString name="brokenbar">
          -532 553 794 rmoveto
          151 712 rlineto
          -146 hlineto
          -151 -712 rlineto
          -88 -1101 rmoveto
          142 668 rlineto
          -146 hlineto
          -142 -668 rlineto
          endchar
        </CharString>
        <CharString name="bullet">
          -242 575 255 38 callgsubr
        </CharString>
        <CharString name="bullet.uc">
          -242 610 418 38 callgsubr
        </CharString>
        <CharString name="c">
          -139 725 1097 -95 callsubr
          endchar
        </CharString>
        <CharString name="cacute">
          -128 725 1097 -95 callsubr
          163 166 -73 callgsubr
          endchar
        </CharString>
        <CharString name="caron">
          -180 849 1228 -78 callsubr
        </CharString>
        <CharString name="caroncmb">
          315 1228 -78 callsubr
        </CharString>
        <CharString name="caroncmb.short">
          184 1575 -80 callgsubr
          endchar
        </CharString>
        <CharString name="carondotaccentcmb">
          100 1228 60 callsubr
        </CharString>
        <CharString name="carondotaccentcmb.mini">
          184 1575 -22 callsubr
          417 34 -13 callsubr
          endchar
        </CharString>
        <CharString name="carondotaccentcmb.short">
          184 1575 -22 callsubr
          421 49 -13 callsubr
          endchar
        </CharString>
        <CharString name="ccaron">
          -128 725 1097 -95 callsubr
          173 131 -78 callsubr
        </CharString>
        <CharString name="ccedilla">
          -128 1143 748 rmoveto
          -1 16 -1 16 -3 15 rrcurveto
          176 -33 -167 126 -213 hhcurveto
          -329 -240 -281 -378 -233 124 -165 195 -46 hvcurveto
          -85 -137 -13 -90 rlineto
          53 hlineto
          87 47 -26 -46 -43 -40 -27 -64 -45 -67 13 15 -35 hvcurveto
          -23 -108 rlineto
          -22 49 69 -14 57 hhcurveto
          144 103 81 114 90 -61 53 -118 13 hvcurveto
          75 121 230 6 180 129 43 192 rlinecurve
          -179 hlineto
          -108 -41 -101 -62 -133 hhcurveto
          -166 -104 122 201 273 160 208 214 137 108 -82 -112 11 hvcurveto
          endchar
        </CharString>
        <CharString name="ccedilla.mini">
          -128 1143 748 rmoveto
          -1 16 -1 16 -3 15 rrcurveto
          176 -33 -167 126 -213 hhcurveto
          -329 -240 -281 -378 -230 121 -164 191 -48 hvcurveto
          -78 -134 -12 -68 rlineto
          66 hlineto
          88 36 -21 -41 -41 -40 -17 -69 -38 -41 5 9 -29 hvcurveto
          -21 -98 rlineto
          -12 30 71 -10 35 hhcurveto
          148 97 63 105 95 -58 50 -122 5 hvcurveto
          60 95 rlineto
          0 1 0 0 237 188 131 196 44 vhcurveto
          -179 hlineto
          -108 -41 -101 -62 -133 hhcurveto
          -166 -104 122 201 273 160 208 214 137 108 -82 -112 11 hvcurveto
          endchar
        </CharString>
        <CharString name="ccedillaacute">
          -128 1238 1601 rmoveto
          -220 hlineto
          -324 -338 rlineto
          194 hlineto
          255 -515 rmoveto
          -1 16 -1 16 -3 15 rrcurveto
          176 -33 -167 126 -213 hhcurveto
          -329 -240 -281 -378 -233 124 -165 195 -46 hvcurveto
          -85 -137 -13 -90 rlineto
          53 hlineto
          87 47 -26 -46 -43 -40 -27 -64 -45 -67 13 15 -35 hvcurveto
          -23 -108 rlineto
          -22 49 69 -14 57 hhcurveto
          144 103 81 114 90 -61 53 -118 13 hvcurveto
          75 121 230 6 180 129 43 192 rlinecurve
          -179 hlineto
          -108 -41 -101 -62 -133 hhcurveto
          -166 -104 122 201 273 160 208 214 137 108 -82 -112 11 hvcurveto
          endchar
        </CharString>
        <CharString name="ccedillaacute.mini">
          -128 1238 1601 rmoveto
          -220 hlineto
          -324 -338 rlineto
          194 hlineto
          255 -515 rmoveto
          -1 16 -1 16 -3 15 rrcurveto
          176 -33 -167 126 -213 hhcurveto
          -329 -240 -281 -378 -230 121 -164 191 -48 hvcurveto
          -78 -134 -12 -68 rlineto
          66 hlineto
          88 36 -21 -41 -41 -40 -17 -69 -38 -41 5 9 -29 hvcurveto
          -21 -98 rlineto
          -12 30 71 -10 35 hhcurveto
          148 97 63 105 95 -58 50 -122 5 hvcurveto
          60 95 rlineto
          0 1 0 0 237 188 131 196 44 vhcurveto
          -179 hlineto
          -108 -41 -101 -62 -133 hhcurveto
          -166 -104 122 201 273 160 208 214 137 108 -82 -112 11 hvcurveto
          endchar
        </CharString>
        <CharString name="ccircumflex">
          -128 725 1097 -95 callsubr
          221 471 -49 callsubr
        </CharString>
        <CharString name="cdotaccent">
          -128 725 1097 -95 callsubr
          99 190 -67 callgsubr
        </CharString>
        <CharString name="cedi">
          54 336 581 rmoveto
          398 232 330 266 vhcurveto
          5 3 0 5 hhcurveto
          -246 -1166 rlineto
          -172 48 -93 163 227 vvcurveto
          952 -205 rmoveto
          -190 hlineto
          -140 -49 -128 -107 -178 hhcurveto
          -4 -5 0 1 -3 hvcurveto
          248 1169 152 -33 89 -112 12 -160 rlinecurve
          -2 183 6 vlineto
          219 -163 196 -238 51 vhcurveto
          125 callgsubr
          -134 hlineto
          -26 -123 rlineto
          -7 -4 0 -6 hhcurveto
          -391 -326 -382 -529 -305 160 -229 255 -57 hvcurveto
          -25 -117 rlineto
          134 hlineto
          22 103 rlineto
          2 4 0 4 hhcurveto
          290 226 170 245 67 hvcurveto
          endchar
        </CharString>
        <CharString name="cedilla">
          -180 281 -233 -90 callgsubr
        </CharString>
        <CharString name="cedillacmb">
          -226 -233 -90 callgsubr
        </CharString>
        <CharString name="cedillacmb.mini">
          -225 -206 -89 callgsubr
          endchar
        </CharString>
        <CharString name="cent">
          54 1188 504 rmoveto
          -179 hlineto
          -108 -41 -101 -62 -133 hhcurveto
          -166 -104 126 201 273 160 208 214 137 108 -82 -112 11 hvcurveto
          176 hlineto
          -1 16 -2 16 -2 15 -25 136 -105 105 -144 42 35 165 rcurveline
          -172 hlineto
          -31 -147 rlineto
          -314 -16 -226 -275 -367 vvcurveto
          -227 118 -165 187 -52 vhcurveto
          -41 -194 rlineto
          172 hlineto
          38 178 219 13 170 127 42 186 rlinecurve
          endchar
        </CharString>
        <CharString name="checyrillic">
          -5 callsubr
          endchar
        </CharString>
        <CharString name="chigreek">
          -160 896 -370 rmoveto
          31 28 3 7 27 hvcurveto
          31 145 rlineto
          -3 -19 -13 -1 -13 hhcurveto
          -81 -29 23 86 -25 hvcurveto
          -134 458 549 730 rlineto
          -186 hlineto
          -399 -549 rlineto
          -16 hlineto
          -117 392 rlineto
          124 -37 -55 43 -117 hhcurveto
          -39 -19 -2 -8 -33 hvcurveto
          -31 -145 rlineto
          3 17 15 1 13 hhcurveto
          81 28 -21 -88 26 hvcurveto
          136 -454 -559 -734 rlineto
          186 hlineto
          408 553 -18 callgsubr
          120 -407 rlineto
          -114 33 57 -42 120 hhcurveto
          endchar
        </CharString>
        <CharString name="circumflex">
          -180 921 1568 -49 callsubr
        </CharString>
        <CharString name="circumflexacutecmb">
          89 callgsubr
          347 21 callsubr
          endchar
        </CharString>
        <CharString name="circumflexacutecmb.mini">
          414 1808 rmoveto
          -202 hlineto
          -89 callsubr
          -234 278 113 callsubr
          227 129 callsubr
          endchar
        </CharString>
        <CharString name="circumflexacutecmb.short">
          41 callsubr
          10 45 113 callsubr
          242 129 callsubr
          endchar
        </CharString>
        <CharString name="circumflexbelowcmb">
          -8 -142 -59 callgsubr
          endchar
        </CharString>
        <CharString name="circumflexcmb">
          363 1568 -49 callsubr
        </CharString>
        <CharString name="circumflexcmb.short">
          429 100 callsubr
          endchar
        </CharString>
        <CharString name="circumflexgravecmb">
          698 130 callgsubr
          -157 -27 -76 callgsubr
          endchar
        </CharString>
        <CharString name="circumflexgravecmb.mini">
          414 1808 rmoveto
          -202 hlineto
          -89 callsubr
          36 278 rmoveto
          -169 227 129 callsubr
          195 -227 rlineto
          endchar
        </CharString>
        <CharString name="circumflexgravecmb.short">
          41 callsubr
          280 45 rmoveto
          -169 242 129 callsubr
          195 -242 rlineto
          endchar
        </CharString>
        <CharString name="circumflexhookabovecmb">
          410 1748 -87 callsubr
          -66 -318 -76 callgsubr
          endchar
        </CharString>
        <CharString name="circumflexhookabovecmb.mini">
          414 1808 rmoveto
          -202 hlineto
          -89 callsubr
          -188 381 57 callgsubr
          -42 -70 -19 hvcurveto
          84 -84 rlineto
          114 38 66 84 93 61 callsubr
          endchar
        </CharString>
        <CharString name="circumflexhookabovecmb.short">
          41 callsubr
          56 143 rmoveto
          6 22 34 3 38 hhcurveto
          68 36 -27 -39 -44 -39 -39 -68 -24 hvcurveto
          78 -90 rlineto
          103 39 77 94 86 vvcurveto
          99 -89 66 -139 -36 -39 -5 -8 -21 vhcurveto
          endchar
        </CharString>
        <CharString name="circumflextildecmb">
          89 callgsubr
          383 -61 callsubr
        </CharString>
        <CharString name="circumflextildecmb.mini">
          414 1808 rmoveto
          -202 hlineto
          -89 callsubr
          -176 279 -34 callgsubr
        </CharString>
        <CharString name="circumflextildecmb.short">
          432 1854 -94 callgsubr
          -220 -46 rmoveto
          -89 callsubr
          -244 233 rlineto
          endchar
        </CharString>
        <CharString name="colon">
          -666 244 -10 rmoveto
          -15 callgsubr
          161 769 rmoveto
          -15 callgsubr
          endchar
        </CharString>
        <CharString name="colon.uc">
          -666 309 164 rmoveto
          -15 callgsubr
          161 769 rmoveto
          -15 callgsubr
          endchar
        </CharString>
        <CharString name="coloncurrency">
          54 995 1305 rmoveto
          1 20 21 1 21 hhcurveto
          44 58 -3 -6 53 hvcurveto
          -610 -1029 -56 39 -47 48 -35 55 rlinecurve
          -57 130 rmoveto
          -10 41 -6 44 46 vvcurveto
          289 169 240 286 79 vhcurveto
          684 327 rmoveto
          -134 hlineto
          -91 -154 -67 10 -86 8 -57 2 rlinecurve
          79 134 rlineto
          -134 hlineto
          -82 -138 rlineto
          -479 -44 -281 -342 -427 vvcurveto
          -121 31 -109 55 -93 vhcurveto
          -307 -517 rlineto
          134 hlineto
          247 416 42 -47 50 -41 57 -35 rlinecurve
          -174 -293 rlineto
          134 hlineto
          142 240 rlineto
          -49 114 131 -26 143 hhcurveto
          48 72 5 6 26 hvcurveto
          35 164 rlineto
          -6 -30 -56 -5 -50 hhcurveto
          -127 -115 24 43 -98 hvcurveto
          endchar
        </CharString>
        <CharString name="comma">
          -666 126 -367 50 callgsubr
          endchar
        </CharString>
        <CharString name="commaaccent">
          -180 407 -494 -37 callsubr
        </CharString>
        <CharString name="commabelowcmb">
          -181 -518 -37 callsubr
        </CharString>
        <CharString name="commabelowcmb.mini">
          -167 -432 -20 callgsubr
        </CharString>
</ttFont>
